<svg width="53" height="53" viewBox="0 0 53 53" fill="none" xmlns="http://www.w3.org/2000/svg">
<g clip-path="url(#clip0)">
<path d="M26.5 49.6875C20.3056 49.6875 14.4839 47.276 10.1048 42.8952C2.94649 35.7386 1.24718 24.8852 5.87474 15.8917C6.29377 15.0785 7.29084 14.7588 8.10571 15.1762C8.91893 15.5936 9.24024 16.5923 8.82121 17.4072C4.85449 25.117 6.31033 34.4185 12.4467 40.5533C16.1998 44.308 21.1901 46.375 26.5 46.375C31.8083 46.375 36.8002 44.308 40.5533 40.5533C44.3064 36.7986 46.375 31.8083 46.375 26.5C46.375 21.1901 44.308 16.1998 40.5533 12.4467C36.7986 8.69366 31.81 6.625 26.5 6.625C21.1901 6.625 16.1998 8.69366 12.4467 12.4467C11.7991 13.0943 10.7524 13.0943 10.1048 12.4467C9.45721 11.7991 9.45721 10.7524 10.1048 10.1048C14.4839 5.72566 20.3056 3.3125 26.5 3.3125C32.6944 3.3125 38.5178 5.72566 42.8952 10.1048C47.276 14.4839 49.6875 20.3056 49.6875 26.5C49.6875 32.6927 47.276 38.5161 42.8952 42.8952C38.5178 47.276 32.6944 49.6875 26.5 49.6875Z" fill="#3BABA4"/>
<path d="M26.5 36.4375C25.5858 36.4375 24.8438 35.6972 24.8438 34.7812V18.2188C24.8438 17.3045 25.5858 16.5625 26.5 16.5625C27.4142 16.5625 28.1562 17.3045 28.1562 18.2188V34.7812C28.1562 35.6972 27.4142 36.4375 26.5 36.4375Z" fill="#3BABA4"/>
<path d="M34.7812 28.1562H18.2188C17.3045 28.1562 16.5625 27.4142 16.5625 26.5C16.5625 25.5858 17.3045 24.8438 18.2188 24.8438H34.7812C35.6972 24.8438 36.4375 25.5858 36.4375 26.5C36.4375 27.4142 35.6972 28.1562 34.7812 28.1562Z" fill="#3BABA4"/>
</g>
<defs>
<clipPath id="clip0">
<rect width="53" height="53" fill="white"/>
</clipPath>
</defs>
</svg>
