<svg id="Capa_1" enable-background="new 0 0 511.831 511.831" height="512" viewBox="0 0 511.831 511.831" width="512" xmlns="http://www.w3.org/2000/svg"><g><circle cx="255.915" cy="37.576" fill="#365e7d" r="18.818"/><g><path d="m455.12 130.211c-1.272 0-2.562-.314-3.751-.977l-176.598-98.352c-11.821-5.834-25.892-5.836-37.713.001l-176.596 98.351c-3.727 2.075-8.431.736-10.507-2.99-2.075-3.727-.736-8.431 2.99-10.507l176.757-98.44c.103-.056.207-.112.312-.164 16.22-8.088 35.584-8.087 51.802 0 .105.052.209.108.312.164l176.757 98.44c3.726 2.076 5.065 6.779 2.99 10.507-1.413 2.537-4.044 3.967-6.755 3.967z" fill="#2b4d66"/></g><path d="m511.831 183.623-22.281 20.597h-466.724l-22.826-20.597v-49.325c0-11.249 9.119-20.368 20.368-20.368h471.094c11.249 0 20.368 9.119 20.368 20.368v49.325z" fill="#95d6a4"/><path d="m491.462 113.93h-24.194c11.249 0 20.368 9.119 20.368 20.368v69.922l24.194-20.597v-49.325c.001-11.249-9.119-20.368-20.368-20.368z" fill="#78c2a4"/><path d="m511.831 183.623h-511.831v296.771c0 11.249 9.119 20.368 20.368 20.368h471.094c11.249 0 20.368-9.119 20.368-20.368v-296.771z" fill="#f4fbff"/><path d="m487.636 183.623h-487.636v22.38h461.667c14.342 0 25.969 11.627 25.969 25.969v248.423c0 11.249-9.119 20.368-20.368 20.368h24.194c11.249 0 20.368-9.119 20.368-20.368v-296.772z" fill="#daf1f4"/><g><path d="m346.115 156.501h-180.4c-4.266 0-7.724-3.458-7.724-7.724s3.458-7.724 7.724-7.724h180.4c4.266 0 7.724 3.458 7.724 7.724s-3.457 7.724-7.724 7.724z" fill="#2b4d66"/></g><g><g><path d="m72.35 243.741h-31.294c-4.266 0-7.724-3.458-7.724-7.724s3.458-7.724 7.724-7.724h31.294c4.266 0 7.724 3.458 7.724 7.724s-3.458 7.724-7.724 7.724z" fill="#dd636e"/></g><g><path d="m138.755 243.741h-31.293c-4.266 0-7.724-3.458-7.724-7.724s3.458-7.724 7.724-7.724h31.293c4.266 0 7.724 3.458 7.724 7.724s-3.458 7.724-7.724 7.724z" fill="#365e7d"/></g><g><path d="m205.158 243.741h-31.293c-4.266 0-7.724-3.458-7.724-7.724s3.458-7.724 7.724-7.724h31.293c4.266 0 7.724 3.458 7.724 7.724s-3.458 7.724-7.724 7.724z" fill="#365e7d"/></g><g><path d="m271.562 243.741h-31.293c-4.266 0-7.724-3.458-7.724-7.724s3.458-7.724 7.724-7.724h31.293c4.266 0 7.724 3.458 7.724 7.724s-3.458 7.724-7.724 7.724z" fill="#365e7d"/></g><g><path d="m337.966 243.741h-31.293c-4.266 0-7.724-3.458-7.724-7.724s3.458-7.724 7.724-7.724h31.293c4.266 0 7.724 3.458 7.724 7.724s-3.458 7.724-7.724 7.724z" fill="#365e7d"/></g><g><path d="m404.37 243.741h-31.293c-4.266 0-7.724-3.458-7.724-7.724s3.458-7.724 7.724-7.724h31.293c4.266 0 7.724 3.458 7.724 7.724s-3.458 7.724-7.724 7.724z" fill="#365e7d"/></g><g><path d="m470.773 243.741h-31.293c-4.266 0-7.724-3.458-7.724-7.724s3.458-7.724 7.724-7.724h31.293c4.266 0 7.724 3.458 7.724 7.724s-3.457 7.724-7.724 7.724z" fill="#365e7d"/></g></g><g><g><path d="m72.35 296.137h-31.294c-4.266 0-7.724-3.458-7.724-7.724s3.458-7.724 7.724-7.724h31.294c4.266 0 7.724 3.458 7.724 7.724s-3.458 7.724-7.724 7.724z" fill="#dd636e"/></g><g><path d="m138.755 296.137h-31.293c-4.266 0-7.724-3.458-7.724-7.724s3.458-7.724 7.724-7.724h31.293c4.266 0 7.724 3.458 7.724 7.724-.001 4.266-3.458 7.724-7.724 7.724z" fill="#365e7d"/></g><g><path d="m205.158 296.137h-31.293c-4.266 0-7.724-3.458-7.724-7.724s3.458-7.724 7.724-7.724h31.293c4.266 0 7.724 3.458 7.724 7.724s-3.458 7.724-7.724 7.724z" fill="#365e7d"/></g><g><path d="m271.562 296.137h-31.293c-4.266 0-7.724-3.458-7.724-7.724s3.458-7.724 7.724-7.724h31.293c4.266 0 7.724 3.458 7.724 7.724-.001 4.266-3.458 7.724-7.724 7.724z" fill="#365e7d"/></g><g><path d="m337.966 296.137h-31.293c-4.266 0-7.724-3.458-7.724-7.724s3.458-7.724 7.724-7.724h31.293c4.266 0 7.724 3.458 7.724 7.724s-3.458 7.724-7.724 7.724z" fill="#365e7d"/></g><g><path d="m404.37 296.137h-31.293c-4.266 0-7.724-3.458-7.724-7.724s3.458-7.724 7.724-7.724h31.293c4.266 0 7.724 3.458 7.724 7.724s-3.458 7.724-7.724 7.724z" fill="#365e7d"/></g><g><path d="m470.773 296.137h-31.293c-4.266 0-7.724-3.458-7.724-7.724s3.458-7.724 7.724-7.724h31.293c4.266 0 7.724 3.458 7.724 7.724s-3.457 7.724-7.724 7.724z" fill="#365e7d"/></g></g><g><g><path d="m72.35 348.532h-31.294c-4.266 0-7.724-3.458-7.724-7.724s3.458-7.724 7.724-7.724h31.294c4.266 0 7.724 3.458 7.724 7.724s-3.458 7.724-7.724 7.724z" fill="#dd636e"/></g><g><path d="m138.755 348.532h-31.293c-4.266 0-7.724-3.458-7.724-7.724s3.458-7.724 7.724-7.724h31.293c4.266 0 7.724 3.458 7.724 7.724s-3.458 7.724-7.724 7.724z" fill="#365e7d"/></g><g><path d="m205.158 348.532h-31.293c-4.266 0-7.724-3.458-7.724-7.724s3.458-7.724 7.724-7.724h31.293c4.266 0 7.724 3.458 7.724 7.724s-3.458 7.724-7.724 7.724z" fill="#365e7d"/></g><g><path d="m271.562 348.532h-31.293c-4.266 0-7.724-3.458-7.724-7.724s3.458-7.724 7.724-7.724h31.293c4.266 0 7.724 3.458 7.724 7.724s-3.458 7.724-7.724 7.724z" fill="#365e7d"/></g><g><path d="m337.966 348.532h-31.293c-4.266 0-7.724-3.458-7.724-7.724s3.458-7.724 7.724-7.724h31.293c4.266 0 7.724 3.458 7.724 7.724s-3.458 7.724-7.724 7.724z" fill="#365e7d"/></g><g><path d="m404.37 348.532h-31.293c-4.266 0-7.724-3.458-7.724-7.724s3.458-7.724 7.724-7.724h31.293c4.266 0 7.724 3.458 7.724 7.724s-3.458 7.724-7.724 7.724z" fill="#365e7d"/></g><g><path d="m470.773 348.532h-31.293c-4.266 0-7.724-3.458-7.724-7.724s3.458-7.724 7.724-7.724h31.293c4.266 0 7.724 3.458 7.724 7.724s-3.457 7.724-7.724 7.724z" fill="#365e7d"/></g></g><g><g><path d="m72.35 400.926h-31.294c-4.266 0-7.724-3.458-7.724-7.724s3.458-7.724 7.724-7.724h31.294c4.266 0 7.724 3.458 7.724 7.724s-3.458 7.724-7.724 7.724z" fill="#dd636e"/></g><g><path d="m138.755 400.926h-31.293c-4.266 0-7.724-3.458-7.724-7.724s3.458-7.724 7.724-7.724h31.293c4.266 0 7.724 3.458 7.724 7.724-.001 4.266-3.458 7.724-7.724 7.724z" fill="#365e7d"/></g><g><path d="m205.158 400.926h-31.293c-4.266 0-7.724-3.458-7.724-7.724s3.458-7.724 7.724-7.724h31.293c4.266 0 7.724 3.458 7.724 7.724s-3.458 7.724-7.724 7.724z" fill="#365e7d"/></g><g><path d="m271.562 400.926h-31.293c-4.266 0-7.724-3.458-7.724-7.724s3.458-7.724 7.724-7.724h31.293c4.266 0 7.724 3.458 7.724 7.724-.001 4.266-3.458 7.724-7.724 7.724z" fill="#dd636e"/></g><g><path d="m337.966 400.926h-31.293c-4.266 0-7.724-3.458-7.724-7.724s3.458-7.724 7.724-7.724h31.293c4.266 0 7.724 3.458 7.724 7.724s-3.458 7.724-7.724 7.724z" fill="#365e7d"/></g><g><path d="m404.37 400.926h-31.293c-4.266 0-7.724-3.458-7.724-7.724s3.458-7.724 7.724-7.724h31.293c4.266 0 7.724 3.458 7.724 7.724s-3.458 7.724-7.724 7.724z" fill="#365e7d"/></g><g><path d="m470.773 400.926h-31.293c-4.266 0-7.724-3.458-7.724-7.724s3.458-7.724 7.724-7.724h31.293c4.266 0 7.724 3.458 7.724 7.724s-3.457 7.724-7.724 7.724z" fill="#365e7d"/></g></g><g><g><path d="m72.35 453.321h-31.294c-4.266 0-7.724-3.458-7.724-7.724s3.458-7.724 7.724-7.724h31.294c4.266 0 7.724 3.458 7.724 7.724s-3.458 7.724-7.724 7.724z" fill="#dd636e"/></g><g><path d="m138.755 453.321h-31.293c-4.266 0-7.724-3.458-7.724-7.724s3.458-7.724 7.724-7.724h31.293c4.266 0 7.724 3.458 7.724 7.724-.001 4.266-3.458 7.724-7.724 7.724z" fill="#365e7d"/></g><g><path d="m205.158 453.321h-31.293c-4.266 0-7.724-3.458-7.724-7.724s3.458-7.724 7.724-7.724h31.293c4.266 0 7.724 3.458 7.724 7.724s-3.458 7.724-7.724 7.724z" fill="#365e7d"/></g></g></g></svg>