<svg height="512pt" viewBox="0 0 512.00082 512" width="512pt" xmlns="http://www.w3.org/2000/svg"><path d="m497.375 219.8125 14.0625-93.964844c2.414062-16.132812-3.023438-32.640625-14.550781-44.167968l-66.566407-66.566407c-11.527343-11.523437-28.035156-16.960937-44.167968-14.550781l-93.964844 14.0625c-10.878906 1.628906-21.15625 6.8125-28.9375 14.59375l-248.085938 248.089844c-9.769531 9.761718-15.1523432 22.742187-15.164062 36.546875-.0117188 13.8125 5.359375 26.792969 15.121094 36.554687l146.46875 146.472656c10.0625 10.0625 23.285156 15.09375 36.511718 15.09375 13.246094 0 26.5-5.046874 36.589844-15.136718l248.089844-248.089844c7.785156-7.78125 12.964844-18.058594 14.59375-28.9375zm-110.371094-48.816406c-25.402344 0-46-20.597656-46-46 0-25.40625 20.597656-46.003906 46-46.003906 25.40625 0 46.003906 20.597656 46.003906 46.003906 0 25.402344-20.597656 46-46.003906 46zm0 0" fill="#deecf1"/><path d="m497.375 219.8125 14.0625-93.964844c2.414062-16.132812-3.023438-32.640625-14.550781-44.167968l-33.285157-33.28125-44.070312 44.070312c8.324219 8.324219 13.476562 19.824219 13.476562 32.527344 0 25.402344-20.597656 46-46.003906 46-12.699218 0-24.199218-5.148438-32.527344-13.472656l-266.121093 266.121093 73.234375 73.234375c10.0625 10.066406 23.285156 15.097656 36.511718 15.097656 13.246094 0 26.5-5.046874 36.589844-15.140624l248.089844-248.085938c7.785156-7.78125 12.964844-18.058594 14.59375-28.9375zm0 0" fill="#c5d3dd"/><path d="m104.113281 322.992188c-3.839843 0-7.679687-1.464844-10.605469-4.394532-5.859374-5.855468-5.859374-15.355468 0-21.210937l69.042969-69.042969c5.859375-5.859375 15.355469-5.859375 21.210938 0 5.859375 5.855469 5.859375 15.351562 0 21.210938l-69.042969 69.042968c-2.929688 2.929688-6.769531 4.394532-10.605469 4.394532zm0 0" fill="#7a8c98"/><path d="m154.050781 372.949219c-3.839843 0-7.679687-1.464844-10.609375-4.394531-5.855468-5.855469-5.855468-15.355469 0-21.210938l124.871094-124.867188c5.855469-5.859374 15.351562-5.859374 21.210938 0 5.859374 5.859376 5.859374 15.355469 0 21.210938l-124.867188 124.871094c-2.929688 2.925781-6.769531 4.390625-10.605469 4.390625zm0 0" fill="#bf8740"/><path d="m339.46875 272.421875c-5.855469-5.855469-15.351562-5.855469-21.210938 0l-124.867187 124.867187c-5.859375 5.859376-5.859375 15.355469 0 21.214844 2.929687 2.929688 6.765625 4.394532 10.605469 4.394532 3.835937 0 7.679687-1.464844 10.605468-4.394532l124.867188-124.867187c5.859375-5.859375 5.859375-15.355469 0-21.214844zm0 0" fill="#596c76"/><path d="m408.925781 118.074219c-3.839843 0-7.679687-1.464844-10.605469-4.394531-5.859374-5.855469-5.859374-15.355469 0-21.210938l80.796876-80.796875c5.855468-5.859375 15.355468-5.859375 21.210937 0 5.859375 5.855469 5.859375 15.355469 0 21.210937l-80.796875 80.796876c-2.925781 2.929687-6.765625 4.394531-10.605469 4.394531zm0 0" fill="#e63950"/><path d="m500.328125 11.671875-102.007813 102.007813c2.929688 2.929687 6.765626 4.394531 10.605469 4.394531 3.839844 0 7.679688-1.464844 10.605469-4.394531l80.796875-80.796876c5.859375-5.855468 5.859375-15.355468 0-21.210937zm0 0" fill="#ae2538"/><path d="m268.3125 222.476562-124.871094 124.867188c-5.855468 5.855469-5.855468 15.351562 0 21.210938l146.078125-146.082032c-5.859375-5.855468-15.351562-5.851562-21.207031.003906zm0 0" fill="#7a8c98"/><path d="m289.523438 222.476562s-.003907 0-.003907-.003906l-146.078125 146.082032c2.929688 2.929687 6.769532 4.394531 10.609375 4.394531 3.835938 0 7.675781-1.464844 10.605469-4.394531l124.867188-124.863282c5.859374-5.859375 5.859374-15.355468 0-21.214844zm0 0" fill="#596c76"/></svg>