<svg width="17" height="17" viewBox="0 0 17 17" fill="none" xmlns="http://www.w3.org/2000/svg">
<path d="M10.965 12.1721C9.5988 13.2334 7.87947 13.7341 6.15709 13.5722C4.4347 13.4103 2.83877 12.598 1.69426 11.3007C0.54974 10.0035 -0.0573035 8.31876 -0.00327109 6.58963C0.0507613 4.8605 0.761807 3.21697 1.98509 1.99369C3.20836 0.770413 4.85189 0.0593673 6.58103 0.00533486C8.31016 -0.0486976 9.99488 0.558346 11.2921 1.70286C12.5894 2.84738 13.4017 4.44331 13.5636 6.16569C13.7255 7.88808 13.2248 9.60741 12.1635 10.9736L16.711 15.5041L15.504 16.7111L10.9735 12.1721H10.965ZM6.8 11.9001C7.46974 11.9001 8.13292 11.7682 8.75169 11.5119C9.37045 11.2556 9.93266 10.8799 10.4062 10.4063C10.8798 9.93277 11.2555 9.37055 11.5118 8.75179C11.7681 8.13303 11.9 7.46985 11.9 6.80011C11.9 6.13036 11.7681 5.46718 11.5118 4.84842C11.2555 4.22966 10.8798 3.66744 10.4062 3.19386C9.93266 2.72028 9.37045 2.34462 8.75169 2.08832C8.13292 1.83202 7.46974 1.70011 6.8 1.70011C5.4474 1.70011 4.15019 2.23743 3.19375 3.19386C2.23732 4.1503 1.7 5.4475 1.7 6.80011C1.7 8.15271 2.23732 9.44991 3.19375 10.4063C4.15019 11.3628 5.4474 11.9001 6.8 11.9001Z" fill="#637C95"/>
</svg>
