<svg height="512" viewBox="0 0 58 58" width="512" xmlns="http://www.w3.org/2000/svg"><g id="Page-1" fill="none" fill-rule="evenodd"><g id="005---Plane-Tickets" fill-rule="nonzero"><path id="Shape" d="m6 35.66-5.77-13.91c-.63169211-1.5298299.09260353-3.2824465 1.62-3.92l11.09-4.59 1.85-.77 29.56-12.24c1.5298291-.63466931 3.2845489.09049549 3.92 1.62l7.65 18.48c.3067261.7344822.3082567 1.5608893.0042532 2.2965026-.3040034.7356133-.8884985 1.3198364-1.6242532 1.6234974l-18.7 7.75z" fill="#84b5cb"/><rect id="Rectangle-path" fill="#9fc9d3" height="26" rx="3" width="52" x="6" y="32"/><path id="Shape" d="m23 32v2c0 .5522847-.4477153 1-1 1s-1-.4477153-1-1v-2z" fill="#3b97d3"/><path id="Shape" d="m23 56v2h-2v-2c0-.5522847.4477153-1 1-1s1 .4477153 1 1z" fill="#3b97d3"/><path id="Shape" d="m22 41c-.5522847 0-1-.4477153-1-1v-2c0-.5522847.4477153-1 1-1s1 .4477153 1 1v2c0 .5522847-.4477153 1-1 1z" fill="#3b97d3"/><path id="Shape" d="m22 47c-.5522847 0-1-.4477153-1-1v-2c0-.5522847.4477153-1 1-1s1 .4477153 1 1v2c0 .5522847-.4477153 1-1 1z" fill="#3b97d3"/><path id="Shape" d="m22 53c-.5522847 0-1-.4477153-1-1v-2c0-.5522847.4477153-1 1-1s1 .4477153 1 1v2c0 .5522847-.4477153 1-1 1z" fill="#3b97d3"/><path id="Shape" d="m15.01 15.63c-.1202223.051241-.2493227.07842-.38.08-.4056405-.0035654-.7706933-.2469339-.93-.62l-.76-1.85 1.85-.77v.01l.76 1.84c.102641.2452731.1033783.5213244.0020488.7671422-.1013295.2458179-.2963823.4411618-.5420488.5428578z" fill="#2980ba"/><path id="Shape" d="m16.925 21.249c-.4050364.0003392-.7702762-.2436804-.925-.618l-.766-1.847c-.1368327-.3301134-.087158-.7081502.1303123-.9917075.2174702-.2835573.569697-.4295561.924-.383.3543029.0465561.656855.2785941.7936877.6087075l.766 1.848c.1279557.3086131.0933432.66074-.0922534.9385324-.1855967.2777924-.4976587.4445517-.8317466.4444676z" fill="#2980ba"/><path id="Shape" d="m19.221 26.792c-.4044291.0001018-.7691037-.2434093-.924-.617l-.765-1.848c-.1490611-.332282-.1056935-.7193283.1132107-1.0103808.2189042-.2910524.5787296-.4400867.9393209-.3890528.3605913.051034.6649281.2940663.7944684.6344336l.766 1.847c.1279557.3086131.0933432.66074-.0922534.9385324-.1855967.2777924-.4976587.4445517-.8317466.4444676z" fill="#2980ba"/><path id="Shape" d="m18.6 41.2-3.6-2.7v-1.5c0-.5522847-.4477153-1-1-1s-1 .4477153-1 1v1.5l-3.6 2.7c-.28581247.2143594-.43555473.5649147-.39282032.9196152.04273441.3547006.27145311.6596589.6.8.32854688.1403412.70700782.0947442.99282032-.1196152l2.4-1.8v1.586l-1.707 1.707c-.2599566.2510745-.3642126.6228779-.2726972.9725073.0915155.3496295.3645604.6226744.7141899.7141899.3496294.0915154.7214328-.0127406.9725073-.2726972l1.293-1.293 1.293 1.293c.3923789.3789722 1.0160848.3735524 1.4018186-.0121814s.3911536-1.0094397.0121814-1.4018186l-1.707-1.707v-1.586l2.4 1.8c.4418278.3313708 1.0686292.2418278 1.4-.2s.2418278-1.0686292-.2-1.4z" fill="#3b97d3"/><path id="Shape" d="m9.6 29.7c.4044291.0001018.7691037-.2434093.924-.617l.7-1.69 1.69.7c.120664.0505914.2501595.0767624.381.077.4781994.0014557.8905059-.3358504.9838203-.8048591.0933145-.4690088-.1584816-.9384454-.6008203-1.1201409l-2.23-.923-.607-1.466 2.907.745c.5348878.1380712 1.0804288-.1836122 1.2185-.7185.1380711-.5348878-.1836122-1.0804288-.7185-1.2185l-4.359-1.117-.574-1.386c-.21124893-.5103111-.79618889-.7527489-1.30649999-.5415s-.75274891.7961889-.54150001 1.3065l.574 1.386-2.298 3.867c-.28194134.475241-.125241 1.0890586.35000002 1.371.47524101.2819413 1.08905861.125241 1.37099998-.35l1.528-2.581.607 1.465-.924 2.23c-.10164213.2450539-.10174198.5204541-.00027757.7655816s.29617645.4398902.54127757.5414184c.12164217.0510625.25207965.0778973.384.079z" fill="#3b97d3"/><path id="Shape" d="m46 49c-.5522847 0-1 .4477153-1 1v4c0 .5522847.4477153 1 1 1s1-.4477153 1-1v-4c0-.5522847-.4477153-1-1-1z" fill="#285680"/><path id="Shape" d="m50 49c-.5522847 0-1 .4477153-1 1v4c0 .5522847.4477153 1 1 1s1-.4477153 1-1v-4c0-.5522847-.4477153-1-1-1z" fill="#285680"/><path id="Shape" d="m54 49c-.5522847 0-1 .4477153-1 1v4c0 .5522847.4477153 1 1 1s1-.4477153 1-1v-4c0-.5522847-.4477153-1-1-1z" fill="#285680"/><path id="Shape" d="m35 39v1c0 1.6568542 1.3431458 3 3 3s3-1.3431458 3-3v-1c0-1.6568542-1.3431458-3-3-3s-3 1.3431458-3 3zm4 0v1c0 .5522847-.4477153 1-1 1s-1-.4477153-1-1v-1c0-.5522847.4477153-1 1-1s1 .4477153 1 1z" fill="#4482c3"/><path id="Shape" d="m47 36c-.5522847 0-1 .4477153-1 1v3c0 .5522847-.4477153 1-1 1s-1-.4477153-1-1v-3c0-.5522847-.4477153-1-1-1s-1 .4477153-1 1v3c0 1.6568542 1.3431458 3 3 3s3-1.3431458 3-3v-3c0-.5522847-.4477153-1-1-1z" fill="#4482c3"/><path id="Shape" d="m53 38h1c.5522847 0 1-.4477153 1-1s-.4477153-1-1-1h-4c-.5522847 0-1 .4477153-1 1s.4477153 1 1 1h1v4c0 .5522847.4477153 1 1 1s1-.4477153 1-1z" fill="#4482c3"/><g fill="#285680"><path id="Shape" d="m27 43c-.5522847 0-1 .4477153-1 1s.4477153 1 1 1h5c.5522847 0 1-.4477153 1-1s-.4477153-1-1-1z"/><path id="Shape" d="m41 47h-14c-.5522847 0-1 .4477153-1 1s.4477153 1 1 1h14c.5522847 0 1-.4477153 1-1s-.4477153-1-1-1z"/><path id="Shape" d="m41 51h-14c-.5522847 0-1 .4477153-1 1s.4477153 1 1 1h14c.5522847 0 1-.4477153 1-1s-.4477153-1-1-1z"/><path id="Shape" d="m42.542 19.379c-.2452815.1013375-.4402208.2960203-.5418812.5411682s-.1017032.5206524-.0001188.7658318l1.53 3.7c.2112489.5103111.7961889.7527489 1.3065.5415s.7527489-.7961889.5415-1.3065l-1.53-3.7c-.2110362-.5102478-.795689-.7528831-1.306-.542z"/><path id="Shape" d="m49.074 22.085-1.53-3.695c-.2112489-.5103111-.7961889-.7527489-1.3065-.5415s-.7527489.7961889-.5415 1.3065l1.531 3.7c.1547569.3732546.5189349.6166976.923.617.1313847-.0002812.2614627-.0260931.383-.076.2460959-.1014967.4415661-.2969277.5431122-.5430033.101546-.2460755.1007858-.5224834-.0021122-.7679967z"/><path id="Shape" d="m50.923 21.32c.2115251.5103111.7966889.752525 1.307.5409999.5103111-.211525.752525-.7966888.541-1.3069999l-1.532-3.695c-.1316192-.3376241-.43559-.5776264-.7945371-.6273323-.358947-.0497059-.7166983.0986631-.9351117.3878157-.2184134.2891527-.2633091.6738391-.1173512 1.0055166z"/></g><path id="Shape" d="m42.635 11.764c.2231847.4902586.7945966.7156376 1.2923626.5097398s.7429963-.7690757.5546374-1.2737398l-1.148-2.773c-.211525-.51058724.0309128-1.0959749.5415-1.30749995.5105873-.21152505 1.0959749.03091273 1.3075.54149995l1.147 2.772c.2112489.5103111.7961889.7527489 1.3065.5415s.7527489-.7961889.5415-1.3065l-1.148-2.768c-.6351275-1.53065718-2.3908428-2.25662746-3.9215-1.6215s-2.2566275 2.39084282-1.6215 3.9215z" fill="#4482c3"/><path id="Shape" d="m35.179 10.441c.1311018.000132.2609321-.0256981.382-.076l.924-.383 1.531 3.7c.1316192.3376241.43559.5776264.7945371.6273323.358947.0497059.7166983-.0986631.9351117-.3878157.2184134-.2891527.2633091-.6738391.1173512-1.0055166l-1.53-3.695.923-.383c.5103111-.21124892.7527489-.79618889.5415-1.3065s-.7961889-.75274892-1.3065-.5415l-1.847.765-1.844.762c-.4411524.18256681-.6917156.65152246-.5982697 1.11972534.0934459.46820286.5048333.80504366.9822697.80427466z" fill="#4482c3"/><path id="Shape" d="m28.618 19.734c-.2114267-.5098572-.7959651-.7519975-1.306-.541l-4.62 1.914c-.4409771.1824958-.6915396.6511699-.5983647 1.119234s.5041169.8050562.9813647.804766c.1313772-.0003573.2614406-.0261662.383-.076l4.619-1.914c.2451011-.1015282.4398132-.2962909.5412776-.5414184s.1013645-.5205277-.0002776-.7655816z" fill="#285680"/><path id="Shape" d="m38.464 19.986c-.1015282-.2451011-.2962909-.4398132-.5414184-.5412776s-.5205277-.1013645-.7655816.0002776l-12.934 5.355c-.3403673.1295403-.5833996.4338771-.6344336.7944684-.0510339.3605913.0980004.7204167.3890528.9393209.2910525.2189042.6780988.2622718 1.0103808.1132107l12.935-5.358c.5082049-.2114226.7500037-.7937955.541-1.303z" fill="#285680"/><path id="Shape" d="m38.687 23.136-9.5 3.94c-.3301134.1368327-.5621514.4393848-.6087075.7936877-.0465561.354303.0994427.7065298.383.924.2835573.2174703.6615941.267145.9917075.1303123l9.5-3.94c.3301134-.1368327.5621514-.4393848.6087075-.7936877.0465561-.354303-.0994427-.7065298-.383-.9240001-.2835573-.2174702-.6615941-.2671449-.9917075-.1303122z" fill="#285680"/><path id="Shape" d="m28.935 15.274.765 1.847c.1548963.3735907.5195709.6171018.924.617.1310532-.0003599.2607888-.0261712.382-.076.2451011-.1015282.4398132-.2962909.5412776-.5414184s.1013645-.5205277-.0002776-.7655816l-.382-.924 1.276-.529 1.223 1.06c.4188272.3413074 1.0330228.2882217 1.3870772-.1198867.3540543-.4081084.3199246-1.0236484-.0770772-1.3901133l-1.074-.934.007-.013c.3865665-.9340493.1725815-2.0089789-.5422198-2.7237802s-1.7897309-.92878634-2.7237802-.5422198l-2.31.957c-.5098572.2114267-.7519975.7959651-.541 1.306zm2.465-3.188c.1870779-.0780747.4027831-.0354669.546125.107875s.1859497.3590471.107875.546125c-.0507531.1227423-.1482577.2202469-.271.271l-1.386.573-.287-.692-.095-.231z" fill="#4482c3"/><path id="Shape" d="m16.707 50.293-2-2c-.3904999-.3903819-1.0235001-.3903819-1.414 0l-2 2c-.3789722.3923789-.3735524 1.0160848.0121814 1.4018186s1.0094397.3911536 1.4018186.0121814l.293-.293v2.586c0 .5522847.4477153 1 1 1s1-.4477153 1-1v-2.586l.293.293c.3923789.3789722 1.0160848.3735524 1.4018186-.0121814s.3911536-1.0094397.0121814-1.4018186z" fill="#e64c3c"/></g></g></svg>