<svg width="584" height="69" viewBox="0 0 584 69" fill="none" xmlns="http://www.w3.org/2000/svg">
<path d="M18.256 14.968H0.303986V2.96801H52.048V14.968H33.808V67H18.256V14.968Z" fill="white"/>
<path d="M55.336 23.512C56.296 22.68 57.96 21.752 60.328 20.728C62.76 19.704 65.448 18.84 68.392 18.136C71.4 17.368 74.28 16.984 77.032 16.984C82.344 16.984 86.024 17.784 88.072 19.384V29.848C85.512 29.272 81.832 28.984 77.032 28.984C74.024 28.984 71.56 29.144 69.64 29.464V67H55.336V23.512Z" fill="white"/>
<path d="M117.614 16.984C122.926 16.984 127.758 18.232 132.11 20.728C136.462 23.16 138.638 27.576 138.638 33.976L138.542 56.92C138.478 60.952 136.462 63.896 132.494 65.752C128.526 67.544 122.734 68.44 115.118 68.44C100.91 68.44 93.8065 62.904 93.8065 51.832C93.8065 47.16 95.2465 43.512 98.1265 40.888C101.07 38.264 105.422 36.952 111.182 36.952C113.55 36.952 115.918 37.272 118.286 37.912C120.654 38.488 122.702 39.256 124.43 40.216V37.144C124.43 31.576 120.846 28.792 113.678 28.792C110.926 28.792 108.078 29.304 105.134 30.328C102.254 31.288 99.9505 32.472 98.2225 33.88V21.208C99.9505 20.056 102.574 19.064 106.094 18.232C109.678 17.4 113.518 16.984 117.614 16.984ZM115.598 58.36C118.926 58.36 121.23 58.136 122.51 57.688C123.79 57.24 124.43 56.344 124.43 55V47.512C122.19 46.744 119.726 46.36 117.038 46.36C113.902 46.36 111.598 46.84 110.126 47.8C108.718 48.696 108.014 50.136 108.014 52.12C108.014 53.976 108.75 55.48 110.222 56.632C111.758 57.784 113.55 58.36 115.598 58.36Z" fill="white"/>
<path d="M199.216 18.424L178.96 67H164.656L144.4 18.424H159.856L172.72 51.256L184.144 18.424H199.216Z" fill="white"/>
<path d="M226.371 16.792C241.539 16.792 249.027 26.68 248.835 46.456H216.771C217.987 53.176 222.499 56.536 230.307 56.536C232.675 56.536 234.979 56.216 237.219 55.576C239.523 54.872 241.955 53.976 244.515 52.888V65.176C239.267 67.352 233.379 68.44 226.851 68.44C221.923 68.44 217.603 67.448 213.891 65.464C210.179 63.416 207.299 60.504 205.251 56.728C203.203 52.952 202.179 48.504 202.179 43.384C202.179 34.936 204.259 28.408 208.419 23.8C212.643 19.128 218.627 16.792 226.371 16.792ZM225.795 27.736C220.675 27.736 217.635 30.936 216.675 37.336H234.627C234.179 33.88 233.251 31.416 231.843 29.944C230.499 28.472 228.483 27.736 225.795 27.736Z" fill="white"/>
<path d="M258.773 67V0.0880127H272.982V67H258.773Z" fill="white"/>
<path d="M303.92 67V9.49601H281.264V2.96801H333.392V9.49601H310.832V67H303.92Z" fill="white"/>
<path d="M353.11 68.44C345.622 68.44 340.054 66.232 336.406 61.816C332.822 57.336 331.03 51.128 331.03 43.192C331.03 34.872 332.918 28.632 336.694 24.472C340.534 20.312 345.942 18.232 352.918 18.232C358.102 18.232 362.326 19.288 365.59 21.4C368.854 23.448 371.254 26.36 372.79 30.136C374.326 33.848 375.094 38.2 375.094 43.192C375.094 51.064 373.174 57.24 369.334 61.72C365.558 66.2 360.15 68.44 353.11 68.44ZM353.014 62.104C356.918 62.104 359.958 61.272 362.134 59.608C364.31 57.88 365.846 55.608 366.742 52.792C367.702 49.912 368.182 46.712 368.182 43.192C368.182 39.416 367.702 36.152 366.742 33.4C365.782 30.584 364.182 28.408 361.942 26.872C359.766 25.336 356.79 24.568 353.014 24.568C349.174 24.568 346.166 25.4 343.99 27.064C341.814 28.728 340.246 30.968 339.286 33.784C338.39 36.536 337.942 39.672 337.942 43.192C337.942 48.824 339.062 53.4 341.302 56.92C343.542 60.376 347.446 62.104 353.014 62.104Z" fill="white"/>
<path d="M408.15 68.44C403.926 68.44 400.31 67.704 397.302 66.232C394.294 64.76 391.99 62.616 390.39 59.8C388.854 56.984 388.086 53.528 388.086 49.432V19.096H394.998V47.896C394.998 52.76 396.054 56.344 398.166 58.648C400.342 60.888 403.67 62.008 408.15 62.008C412.63 62.008 415.926 60.888 418.038 58.648C420.214 56.344 421.302 52.76 421.302 47.896V19.096H428.214V49.432C428.214 55.512 426.454 60.216 422.934 63.544C419.478 66.808 414.55 68.44 408.15 68.44Z" fill="white"/>
<path d="M463.65 67.768C461.09 67.768 458.466 67.448 455.778 66.808C453.154 66.104 450.722 64.888 448.482 63.16C446.306 61.368 444.546 58.84 443.202 55.576C441.858 52.312 441.186 48.12 441.186 43C441.186 37.88 441.858 33.72 443.202 30.52C444.546 27.256 446.306 24.728 448.482 22.936C450.722 21.144 453.154 19.928 455.778 19.288C458.466 18.584 461.09 18.232 463.65 18.232C466.082 18.232 468.482 18.456 470.85 18.904C473.282 19.352 475.618 20.024 477.858 20.92V27.544C475.746 26.648 473.57 25.976 471.33 25.528C469.09 25.08 466.786 24.856 464.418 24.856C458.722 24.856 454.562 26.296 451.938 29.176C449.378 32.056 448.098 36.664 448.098 43C448.098 49.4 449.378 54.04 451.938 56.92C454.562 59.736 458.722 61.144 464.418 61.144C466.786 61.144 469.09 60.92 471.33 60.472C473.57 60.024 475.746 59.352 477.858 58.456V65.176C475.618 66.008 473.282 66.648 470.85 67.096C468.482 67.544 466.082 67.768 463.65 67.768Z" fill="white"/>
<path d="M507.348 68.44C505.236 68.44 503.092 68.216 500.916 67.768C498.804 67.32 496.82 66.552 494.964 65.464C493.172 64.376 491.7 62.904 490.548 61.048C489.46 59.128 488.916 56.728 488.916 53.848C488.916 49.88 489.652 46.712 491.124 44.344C492.66 41.912 494.74 40.184 497.364 39.16C500.052 38.072 503.124 37.528 506.58 37.528C509.204 37.528 511.476 37.688 513.396 38.008C515.316 38.328 517.012 38.808 518.484 39.448C520.02 40.024 521.396 40.696 522.612 41.464L523.956 47.8C522.484 46.712 520.34 45.784 517.524 45.016C514.772 44.184 511.732 43.768 508.404 43.768C504.372 43.768 501.268 44.536 499.092 46.072C496.916 47.608 495.828 49.848 495.828 52.792C495.828 55.16 496.468 57.048 497.748 58.456C499.092 59.864 500.756 60.856 502.74 61.432C504.788 62.008 506.868 62.296 508.98 62.296C513.14 62.296 516.276 62.008 518.388 61.432C520.564 60.792 521.652 59.384 521.652 57.208V35.224C521.652 31.512 520.564 28.792 518.388 27.064C516.212 25.336 513.108 24.472 509.076 24.472C506.516 24.472 503.796 24.856 500.916 25.624C498.1 26.328 495.668 27.48 493.62 29.08V22.168C495.604 20.888 498.26 19.928 501.588 19.288C504.916 18.584 508.148 18.232 511.284 18.232C513.396 18.232 515.348 18.456 517.14 18.904C518.932 19.288 520.532 19.896 521.94 20.728C523.348 21.496 524.532 22.52 525.492 23.8C526.516 25.016 527.284 26.456 527.796 28.12C528.372 29.72 528.66 31.544 528.66 33.592V56.824C528.66 60.216 527.636 62.744 525.588 64.408C523.604 66.072 520.98 67.16 517.716 67.672C514.516 68.184 511.06 68.44 507.348 68.44Z" fill="white"/>
<path d="M543.992 22.936C545.528 22.168 547.096 21.496 548.696 20.92C550.36 20.28 552.024 19.768 553.688 19.384C555.416 19 557.144 18.712 558.872 18.52C560.664 18.328 562.456 18.232 564.248 18.232C568.92 18.232 572.632 18.936 575.384 20.344C578.137 21.688 580.12 23.672 581.336 26.296C582.616 28.92 583.257 32.088 583.257 35.8V67H576.344V35.8C576.344 34.648 576.184 33.432 575.864 32.152C575.608 30.872 575.064 29.656 574.232 28.504C573.4 27.288 572.121 26.328 570.392 25.624C568.664 24.856 566.361 24.472 563.48 24.472C561.496 24.472 559.448 24.632 557.336 24.952C555.224 25.272 553.08 25.752 550.904 26.392V67H543.992V22.936Z" fill="white"/>
</svg>
