<svg width="156" height="135" viewBox="0 0 156 135" fill="none" xmlns="http://www.w3.org/2000/svg">
<path d="M131.484 65.7422C131.484 102.051 102.051 131.484 65.7422 131.484C29.4338 131.484 0 102.051 0 65.7422C0 29.4338 29.4338 0 65.7422 0C102.051 0 131.484 29.4338 131.484 65.7422Z" fill="#6DB88B"/>
<mask id="mask0" mask-type="alpha" maskUnits="userSpaceOnUse" x="9" y="29" width="110" height="106">
<path d="M84.5546 29.5413C22.4819 30.0494 8.91569 92.8447 9.89167 124.179C27.4594 136.882 66.9868 135.823 84.5546 133.706V57.488C110.418 47.9607 146.627 29.0332 84.5546 29.5413Z" fill="#EDE5E5"/>
</mask>
<g mask="url(#mask0)">
<path fill-rule="evenodd" clip-rule="evenodd" d="M65.7422 131.484C102.051 131.484 131.484 102.051 131.484 65.7422C131.484 49.1953 125.371 34.0761 115.28 22.5201C105.614 17.1212 92.396 15.1172 75.9375 15.1172C38.27 15.1172 16.875 67.4496 16.875 105.117C16.875 106.769 16.8972 108.327 16.9429 109.796C28.974 123.115 46.3807 131.484 65.7422 131.484Z" fill="black"/>
<path d="M84.375 28.8281H148.843C162.944 28.8281 174.375 40.1959 174.375 54.2188V74.5313H84.375V28.8281Z" fill="#CE9B9B"/>
<path d="M58.0478 41.0801L85.0781 28.8281V127.266L52.5736 63.5287C51.7549 61.9232 51.3281 60.1475 51.3281 58.3463V51.4871C51.3281 47.0041 53.9555 42.9349 58.0478 41.0801Z" fill="white"/>
</g>
<path d="M77.3438 29.8329L116.469 23.8711C134.181 21.1722 151.046 35.4354 154.138 55.7287L155.258 63.0776L84.0625 73.9261L77.3438 29.8329Z" fill="#AE67E5"/>
<path d="M82.4308 63.2178L145.93 53.542C150.18 52.8943 154.207 56.1765 154.922 60.8729L155.354 63.7075L84.1585 74.5561L82.4308 63.2178Z" fill="#EC925F"/>
<path d="M78.8795 39.9114L118.145 33.9282C129.488 32.1998 140.274 41.2332 142.235 54.105L82.4308 63.2178L78.8795 39.9114Z" fill="#FCF43D"/>
<path d="M72.4219 52.0313C72.4219 55.9145 69.2739 59.0625 65.3906 59.0625C61.5074 59.0625 58.3594 55.9145 58.3594 52.0313C58.3594 48.148 61.5074 45 65.3906 45C69.2739 45 72.4219 48.148 72.4219 52.0313Z" fill="#1C1C1C"/>
</svg>
