<svg width="53" height="53" viewBox="0 0 27 27" fill="none" xmlns="http://www.w3.org/2000/svg">
<path d="M24.0934 0H13.8466C13.6369 0 13.4357 0.0834272 13.2874 0.231742L0.849721 12.669C-0.28324 13.8024 -0.28324 15.6462 0.849721 16.7792L10.2206 26.1498C10.7677 26.6969 11.4975 26.9983 12.2753 26.9985H12.2755C13.0536 26.9985 13.7834 26.6969 14.3307 26.1496L26.768 13.7121C26.9163 13.5638 26.9997 13.3626 26.9997 13.1529L26.9999 2.90615C26.9997 1.30373 25.6958 0 24.0934 0ZM25.4177 12.8253L13.212 25.031C12.9636 25.2797 12.6309 25.4165 12.2755 25.4165C11.92 25.4165 11.5875 25.2797 11.3391 25.0312L1.96826 15.6606C1.45204 15.1444 1.45204 14.304 1.96826 13.7875L14.1742 1.58203H24.0934C24.8236 1.58203 25.4179 2.17611 25.4179 2.90636L25.4177 12.8253Z" fill="#323c46"/>
<path d="M20.0278 4.48654C19.3638 4.48654 18.7397 4.74527 18.2702 5.21473C17.8008 5.68398 17.5422 6.30814 17.5422 6.97206C17.5422 7.63598 17.8008 8.26014 18.2702 8.7296C18.7397 9.19906 19.3638 9.45758 20.0278 9.45758C20.6915 9.45758 21.3156 9.19906 21.7851 8.7296C22.2545 8.26014 22.5131 7.63598 22.5131 6.97206C22.5131 6.30814 22.2545 5.68398 21.7853 5.21473C21.3158 4.74527 20.6917 4.48654 20.0278 4.48654ZM20.6665 7.61085C20.496 7.78162 20.269 7.87555 20.0278 7.87555C19.7863 7.87555 19.5595 7.78162 19.389 7.61085C19.2182 7.44028 19.1243 7.21328 19.1243 6.97206C19.1243 6.73084 19.2182 6.50384 19.389 6.33327C19.5595 6.16251 19.7865 6.06857 20.0278 6.06857C20.269 6.06857 20.4958 6.16251 20.6665 6.33327C20.8373 6.50384 20.9312 6.73084 20.9312 6.97206C20.9312 7.21328 20.8371 7.44028 20.6665 7.61085Z" fill="#323c46"/>
</svg>
