<svg width="27" height="27" viewBox="0 0 27 27" fill="none" xmlns="http://www.w3.org/2000/svg">
<path d="M24.0934 0H13.8466C13.6369 0 13.4357 0.0834272 13.2874 0.231742L0.849721 12.669C-0.28324 13.8024 -0.28324 15.6462 0.849721 16.7792L10.2206 26.1498C10.7677 26.6969 11.4975 26.9983 12.2753 26.9985H12.2755C13.0536 26.9985 13.7834 26.6969 14.3307 26.1496L26.768 13.7121C26.9163 13.5638 26.9997 13.3626 26.9997 13.1529L26.9999 2.90615C26.9997 1.30373 25.6958 0 24.0934 0ZM25.4177 12.8253L13.212 25.031C12.9636 25.2797 12.6309 25.4165 12.2755 25.4165C11.92 25.4165 11.5875 25.2797 11.3391 25.0312L1.96826 15.6606C1.45204 15.1444 1.45204 14.304 1.96826 13.7875L14.1742 1.58203H24.0934C24.8236 1.58203 25.4179 2.17611 25.4179 2.90636L25.4177 12.8253Z" fill="#CCCCCC"/>
</svg>
