<svg id="Layer_1" enable-background="new 0 0 512.17 512.17" height="512" viewBox="0 0 512.17 512.17" width="512" xmlns="http://www.w3.org/2000/svg"><g><path d="m188.742 0h191.07v87.372h-191.07z" fill="#edf7fc"/><path d="m284.277 0h95.535v87.372h-95.535z" fill="#cce5ff"/><path d="m68.803 57.372h86.388v454.798h-86.388z" fill="#f85b6e"/><path d="m390.625 57.372h-265.435v454.798h265.435c29.082 0 52.742-23.66 52.742-52.742v-349.314c0-29.082-23.66-52.742-52.742-52.742z" fill="#e63950"/><path d="m390.625 57.372h-106.348v454.798h106.348c29.082 0 52.742-23.66 52.742-52.742v-349.314c0-29.082-23.66-52.742-52.742-52.742z" fill="#ae2538"/><path d="m284.277 127.162c-55.266 0-100.228 44.962-100.228 100.228s44.962 100.228 100.228 100.228 100.228-44.962 100.228-100.228-44.962-100.228-100.228-100.228zm68.598 85.228h-20.609c-1-15.345-3.527-29.802-7.394-42.251 14.007 9.96 24.215 24.913 28.003 42.251zm-68.598 85.1c-1.627-.961-6.416-5.626-10.916-18.571-3.586-10.318-5.983-22.943-7.004-36.529h35.84c-1.021 13.585-3.418 26.21-7.004 36.528-4.5 12.945-9.29 17.61-10.916 18.572zm-17.92-85.1c1.021-13.586 3.418-26.211 7.004-36.529 4.5-12.944 9.289-17.609 10.916-18.571 1.626.962 6.416 5.627 10.916 18.572 3.586 10.318 5.983 22.943 7.004 36.528zm-22.675-42.252c-3.867 12.448-6.394 26.906-7.394 42.251h-20.609c3.789-17.337 13.997-32.29 28.003-42.251zm-28.003 72.252h20.609c1 15.345 3.527 29.803 7.394 42.251-14.006-9.961-24.214-24.914-28.003-42.251zm109.194 42.251c3.867-12.449 6.394-26.906 7.394-42.251h20.609c-3.789 17.337-13.997 32.29-28.003 42.251z" fill="#ffde46"/><g><path d="m223.544 417.742h121.466v30h-121.466z" fill="#ffde46"/></g><g><path d="m199.05 358.347h170.455v30h-170.455z" fill="#ffde46"/></g><g fill="#febf01"><path d="m384.505 227.39c0-55.266-44.962-100.228-100.228-100.228v30.127c1.626.962 6.416 5.627 10.916 18.572 3.586 10.318 5.983 22.943 7.004 36.528h-17.92v30h17.92c-1.021 13.585-3.418 26.21-7.004 36.528-4.5 12.945-9.29 17.61-10.916 18.572v30.127c55.266.001 100.228-44.961 100.228-100.226zm-59.632 57.251c3.867-12.449 6.394-26.906 7.394-42.251h20.609c-3.789 17.337-13.997 32.29-28.003 42.251zm7.394-72.251c-1-15.345-3.527-29.802-7.394-42.251 14.006 9.96 24.214 24.914 28.003 42.251z"/><path d="m284.277 417.742h60.732v30h-60.732z"/><path d="m284.277 358.347h85.228v30h-85.228z"/></g></g></svg>