<svg width="32" height="33" viewBox="0 0 32 33" fill="none" xmlns="http://www.w3.org/2000/svg">
<g clip-path="url(#clip0)">
<path d="M12.3394 0L11.634 0.21939L11.0865 0.0949597L10.6549 0.281603L10.1363 0.157175L9.03151 0.343818L8.57413 0.592677L8.23916 0.654892L7.77856 0.903751H7.47257L7.44036 0.749852L6.7994 0.844811L6.5836 0.559932L6.4 0.622147L5.91042 1.33925L4.83785 1.93193L4.50287 2.40018L4.40946 2.95684L4.37725 2.98958L4.13246 3.30066L3.52048 3.73616L2.97292 3.86386L2.57353 4.42379L2.20634 4.63991L1.90035 5.29153L1.47519 5.64189L0.827783 6.60131L0.676399 7.03681L0.763364 6.88291L0.950178 7.31514L0.737594 7.72118L0.79557 8.47103L0.428387 9.43372L0 9.8725L0.338199 10.272L0.30599 10.5241L0.676399 10.4619L0.370411 10.5863L0.244792 10.4946L0.151387 10.8974H0.370411L0.151387 10.9891L0.457374 11.0218L0.30599 11.1463L0.489584 11.179L0.428387 11.3002L0.85677 11.179L0.611979 11.274L0.79557 11.3624L0.582991 11.4901L0.676399 11.644L0.79557 11.585L0.737594 11.7062L0.888978 11.6112L0.950178 12.05L1.13377 12.1417L1.31736 12.2367L1.22396 12.3906L1.37856 12.4528L1.40755 12.8588L1.56215 12.8293L1.34958 12.8915L1.68455 13.2321L1.65556 13.4187L2.17413 13.6971L3.18551 14.663L3.7073 14.8824L4.31928 14.5713L5.26946 14.4469L6.15521 14.6958L7.07318 14.2603L7.71737 14.0081L8.85114 13.7626L8.66432 13.887L9.12492 13.9197L9.4309 14.1981L9.58551 14.1031L9.4309 14.2308L9.64671 14.2603L9.4921 14.2897L9.55652 14.3847L9.7079 14.2897L9.55652 14.4764L9.86251 14.9152L10.1975 14.8824V14.758L10.2587 14.8824L10.2297 14.7252L10.3199 14.8824L10.3811 14.6958L10.5035 14.8202L10.9351 14.7875L10.9029 14.6041L11.0543 14.8202L11.2089 14.6958L11.3602 15.0691L11.6083 15.0068L11.6662 15.1313H11.5471L11.7274 15.5046L11.4214 16.4378L11.6083 16.4705L11.576 16.7816L11.4214 16.7489L11.7274 16.906L11.5148 16.9682L11.4214 16.8438L11.328 17.3415H11.1155L11.576 18.1831L12.5874 19.1785L12.8 19.8007L13.0448 19.9251L12.8322 19.9873L13.383 21.1072L13.1994 21.4182L13.412 21.857L13.6246 22.3515L13.5376 22.9474L13.0126 23.5041L12.6776 24.66L12.7388 25.6554L13.995 27.7379L14.2108 29.4177L15.1899 31.0091L15.6151 31.723L15.6473 32.0635L15.4637 32.1912L15.6795 32.7806L15.8341 32.6889L16.2915 33L17.3319 32.6595L18.2208 32.7511L19.1098 32.5023L20.4272 31.5691L20.8556 31.0091L21.0392 30.7897L21.5255 30.3837L21.9249 29.3293L21.8637 29.4177L21.7413 29.2638L23.0909 28.4551L23.2101 27.584L22.9363 26.8375L22.9653 26.4314L23.0587 26.5264L23.7319 26.0581L24.0089 25.5932L25.3874 24.9383L25.4486 24.8139L25.8738 24.1917L25.7868 23.288L25.8738 23.193L25.8126 22.5086L25.9672 22.1976L25.6934 21.9814L25.5678 21.8865V21.857L25.4486 21.045L25.5388 20.8288H25.4164L25.6 20.4228L25.2618 19.9578L25.4776 19.3029L25.8448 18.5236L25.9382 18.337L26.3054 18.1209L26.212 17.967H26.46L27.4392 16.6539L28.4763 15.8156L29.2429 14.8202L30.2543 12.4233V12.1417L30.2253 11.9845L30.4379 11.9256H30.2865L30.3155 11.274L30.0996 11.179L29.6133 11.4901L28.7823 11.585L28.4183 11.8012L28.1413 11.7062L27.6517 11.955L27.0108 11.3624L26.7338 11.3951L27.101 11.179L27.0398 10.9596L26.0284 9.93143L25.6 9.77753L25.5066 9.62036L25.4164 9.52868L25.3874 9.71532L24.7432 8.31385L24.1892 7.93729L23.9477 6.88291L24.0379 6.94185L23.7963 6.47688L23.2423 6.07085L23.0909 5.63535H23.2101L22.9041 5.38649L22.0795 3.9228L21.6189 3.42508L21.5094 3.0518C21.5082 3.0499 21.5073 3.0472 21.5062 3.04525C21.5 3.03468 21.4933 3.02226 21.4901 3.00923C21.4691 2.92379 21.4192 2.83387 21.4192 2.72435C21.4192 2.70892 21.4192 2.69394 21.4192 2.67851C21.4192 2.63164 21.4134 2.58274 21.4063 2.53443L21.2517 2.55735L21.1616 2.36743L20.7944 2.33469L20.0568 2.64576L19.2032 2.40018L18.4656 2.36743L18.3432 2.18079L17.6701 2.08911L17.5767 1.89919L17.0259 1.77803L16.3817 2.08911V2.64576H16.3527L15.9211 2.86843L15.4637 2.61629L14.6069 2.40018L14.3911 1.99415L13.6568 1.77803L13.2316 1.8075L12.4006 1.43421L12.3394 1.24429L12.8322 0.844811L12.5874 0.468248L12.8322 0.0949597L12.5874 0.248859L12.3394 0ZM1.47519 5.64189L1.50096 5.6026L1.40755 5.69756L1.47519 5.64189ZM6.54817 0.523914L6.55461 0.533738L6.57071 0.523914C6.56322 0.524318 6.55568 0.523602 6.54817 0.523914ZM2.94072 3.3334L2.72491 3.49057L2.87952 3.42508L2.94072 3.3334ZM2.72491 3.52004L2.41893 3.83112L2.60252 3.7689L2.72491 3.52004ZM1.90035 3.61173L1.59437 3.70669L1.62335 3.86386L1.90035 3.61173ZM1.99054 3.7689L1.92934 3.89333L2.08073 3.86386L1.99054 3.7689ZM21.9861 5.6026L22.1407 6.10359L21.7123 6.19855L21.3129 6.72574L21.5577 6.22802L21.9249 6.13634L21.9861 5.6026ZM1.37856 8.96547L1.68455 9.2176L1.90035 9.68258L1.37856 8.99821L0.676399 9.02768L1.37856 8.96547ZM25.4486 9.33876L25.4776 9.46646L25.6612 9.49593L25.4776 9.33876H25.4486ZM5.44982 9.43372L5.60443 9.62036L5.48203 9.64983L5.44982 9.43372ZM13.5376 10.2458L13.6246 10.5569L13.8114 10.4619V10.6158L14.2398 10.678L13.689 10.9596L13.3508 10.3047L13.5376 10.2458ZM24.5274 11.0218L24.4695 11.3624L24.3148 11.1168L24.5274 11.0218ZM9.09593 11.4901L9.36971 11.7062L9.27952 12.1417V12.2072L9.25053 12.1417L9.15712 11.955L9.3375 11.7062L9.09593 11.4901ZM6.64801 12.5805L7.13438 13.1699L7.16658 13.2321L7.25999 12.6394L7.13438 14.0081V13.8542L7.10539 13.8248L6.76719 13.6676L7.07318 13.7626L7.10539 13.6971L7.16658 13.4515L7.10539 13.3565L7.01198 13.3238H6.7994L7.07318 13.2321L6.76719 13.0749L6.70599 12.7966H6.36779L6.677 12.7638L6.64801 12.5805ZM10.0751 12.7966L10.2587 13.2026L10.0751 14.352L10.2297 13.1699L10.0751 12.7966ZM4.68646 13.0454L4.56407 13.386L4.62527 13.481L4.74444 13.386L4.68646 13.6348L4.50287 13.4187L4.68646 13.0454ZM24.1313 14.7252L24.3438 15.8484L23.9767 15.2262L24.1313 14.7252ZM11.2411 15.164L10.9931 15.3474V15.3801L11.1155 15.4424L11.2411 15.164ZM15.6795 15.8156L15.4637 17.2171L15.8019 16.5L16.2013 16.2839L16.5363 16.0972L16.6265 16.0318L17.6314 15.9499L17.6701 15.9433L17.6765 15.9466L17.7313 15.9433L18.7426 16.6539L17.6765 15.9466L17.6314 15.9499L16.5363 16.1889L16.2013 16.2839L15.7697 16.595L15.8019 16.9977L14.7293 18.0554L14.6971 18.4941L14.6681 18.0881L15.4347 17.2171L15.6795 15.8156ZM21.9861 15.8484L21.8927 16.1889L21.5577 16.5L21.5255 16.2839L21.9861 15.8484ZM22.9363 16.1889L22.7527 16.2544L22.8139 16.4083L22.5079 16.3134L22.9363 16.1889ZM22.8751 16.7489L22.9363 16.906L23.1521 16.8766L23.2713 17.1876L23.4903 17.0599L23.5483 17.1549L23.1811 17.2793L23.1521 17.7443L22.7849 17.9932L23.0909 18.0881L22.8751 18.2453L22.6593 18.1831L22.6915 18.3992L22.5691 18.4941L22.5981 18.2453L22.3243 18.1209L22.1407 18.3992L22.0473 17.9932L22.2309 17.0305L22.5369 16.8766L22.6915 16.9682L22.8751 16.7489ZM21.2517 17.0599L21.007 17.3088L21.0681 17.0927L21.2517 17.0599ZM11.7274 17.4038L11.882 17.466L11.7274 17.5609V17.4038ZM15.8341 17.777L15.7085 17.967L15.8631 18.0259L15.6795 18.3075L15.6151 17.8393L15.8341 17.777ZM20.8556 17.777L21.007 17.9932L20.7622 18.2125L20.8556 17.777ZM20.9747 18.648L21.2517 19.8334L21.1293 20.0495L21.5255 20.3901L21.7735 21.2643L21.4675 21.1399L21.3129 20.5472L20.8846 19.9873L20.9135 18.9886L20.8234 19.1163L20.9747 18.648ZM25.5066 19.8007L25.4486 20.0168L25.6 20.1739L25.5388 19.9251L25.5066 19.8007ZM22.1407 20.7011L22.4177 20.9533L22.1407 20.8911V20.7011ZM21.1004 21.1399L21.2807 21.1694L20.9747 21.356L21.1004 21.1399ZM20.8234 21.2021L20.6076 21.6082L20.4272 21.6376L20.4562 21.4182L20.8234 21.2021ZM23.0587 21.6376L23.2713 21.857L23.4259 22.5709L23.2713 23.0358L23.4581 23.9723L23.1811 23.8479L22.9653 22.9474L23.1521 22.6658L23.0297 21.857L22.9975 21.7293H23.0297L23.0587 21.6376ZM21.1293 22.2925H21.1616V22.4792L21.007 22.5414L21.1293 22.2925ZM27.101 22.5414L27.0398 22.6953L27.1299 22.7902L27.101 22.5414ZM29.5199 22.8197L29.2751 23.0358L29.2429 23.4746L29.0013 23.6907L28.8757 23.599V23.9101H28.7823L28.6019 24.2834L28.6309 24.0967L28.4183 24.3456L28.4763 24.47L28.3571 24.5323L28.3893 24.3456L28.1703 24.5028V24.7189L28.0511 24.5945L27.3168 24.8139L27.0108 25.436L27.072 26.5886L26.5792 27.178L26.3988 27.6463L26.46 28.8611L26.795 29.0445L27.6517 28.8283L29.1527 25.7471L29.2429 25.2821L29.4297 25.1249V24.5028L29.5489 24.47L29.6133 24.7189L29.7647 24.47L29.7035 23.3207L29.4587 22.9769L29.5199 22.8197ZM27.5293 22.8525L27.4392 22.9147L27.5583 23.0064L27.5293 22.8525ZM20.6076 25.0005L20.1824 25.1249L19.6606 25.6554L20.0568 25.1249L20.6076 25.0005ZM31.971 26.5886L31.8454 26.8375L32 26.7098L31.971 26.5886ZM31.2044 26.9946L31.053 27.0536L31.2044 27.2108V26.9946ZM19.0776 29.886L18.9842 30.0726L18.8199 30.0202H18.8135L18.923 30.1054L18.7716 30.0432L18.8135 30.0202L18.8038 30.0137L18.8199 30.0202L19.0776 29.886Z" fill="#474747"/>
</g>
<defs>
<clipPath id="clip0">
<rect width="32" height="33" fill="white"/>
</clipPath>
</defs>
</svg>
