<svg width="39" height="41" viewBox="0 0 39 41" fill="none" xmlns="http://www.w3.org/2000/svg">
<g clip-path="url(#clip0)">
<path d="M8.7575 11.74L9.11308 12.0591V12.2485L8.69376 12.6307L8.7575 12.7903L8.34154 12.5044L8.08324 12.664L8.14697 12.8866L7.88867 12.6307L7.79139 12.7603L7.88867 12.9199L7.69746 13.4284L7.95241 13.8438L7.72765 14.0665L7.60018 14.5784L7.82493 14.1961L8.04969 14.2593L8.08324 14.8974L7.69746 14.9307L7.60018 14.6116L7.34188 14.8974L7.30833 15.2165L7.34188 15.057L7.5029 15.1833L7.43916 15.4093L7.34188 15.2796L7.21441 15.4724H7.37543V15.7283L6.92256 16.6523L6.27849 16.3964L5.79543 15.5023L6.02019 14.8642L6.27849 14.7711L6.50324 14.4521L6.78611 14.4864L6.60391 14.2735L6.47541 14.0465L6.38172 13.84L6.34879 13.7174L6.3323 13.6118L6.37826 13.5663L6.36813 13.4566L6.31851 13.3139L6.26215 13.1609L6.19384 13.0279L6.10261 12.8481L5.99745 12.6582L6.02111 12.6133L5.97607 12.4409L5.91822 12.2521L5.79602 12.0398L5.71711 12.007L5.69037 11.9074L5.60478 11.6906L5.51988 11.4998L5.46574 11.3125L5.35696 10.5707L5.37734 11.39L5.44444 11.9317L5.24987 12.3804L5.05531 12.5067L4.66953 12.4436L4.63934 12.4103L4.3475 12.1245L4.0892 11.6127L4.12274 11.0078L3.83425 10.6887L3.25391 10.6256L3.02916 10.1769L2.89833 10.3364L2.96207 10.4959L2.80105 10.3364L2.70712 10.466L2.48261 9.95769L2.25426 10.0173L2.09324 10.1769L2.22407 10.3065L1.93222 10.6256V10.7851L1.83494 10.7186L1.90203 10.5292L1.7712 10.6555V10.9745L1.67392 11.0377L1.61018 11.3268L1.48271 11.3568L1.64373 11.5495L1.41898 11.5163L1.61018 11.6459L1.57999 12.2209L1.67392 12.3472L1.90203 12.1245L1.96577 12.2508L1.99596 12.9222L2.25426 13.1116L2.51256 13.0186L2.5461 13.2712L2.77086 13.3044L2.38508 13.7198L2.15698 14.1984L1.03018 15.1558L0.729271 16.0946L0.355582 16.5582L0.452864 16.7177L0.291846 18.4095L0.161018 18.7917L0.291846 19.3035L0.194564 20.038L0 20.6429L0.0637361 21.1215L0.161018 21.6001L0.2583 23.355L0.0335458 23.9931L0 25.3026L0.452864 25.6217L0.677618 25.5253L1.67392 25.8743L1.93222 25.748L2.93188 25.9407L3.0929 25.6217L4.02546 25.8743L4.25022 25.5884L4.57225 25.7147L4.83055 25.3957L5.21632 25.4921L5.34715 24.9171L5.50817 24.824L5.60545 24.9503L6.27972 24.3454L6.08851 23.5777L5.60545 23.0991L5.47463 22.7501L5.53836 22.1419L5.73293 21.856L4.6058 22.4609L4.15629 22.1419L3.96172 22.1751L3.76716 21.8228L4.0892 21.1547L3.92818 20.9952L3.67323 21.537L3.63969 20.8024L3.8007 20.5465L3.60614 19.8452L3.73697 18.9213L3.60614 18.8249L3.8007 18.8548L3.83425 18.6321V18.569L4.05901 18.7917L4.15629 18.6321L4.25022 18.9213L4.44478 18.9512V19.0476L4.41123 20.1976L4.66953 20.5166L4.89429 21.2179L5.18614 21.5037H5.92749V22.2715L6.76277 22.9395L7.34311 23.3882L9.17805 23.8003L9.14786 24.2158L9.37261 24.3122V24.7575L9.44306 24.7775L9.50009 24.6944L9.55711 24.814L9.69465 24.8539L9.63091 25.0467L9.88586 24.9503L9.69465 25.0766L9.9194 25.5253L10.436 25.6217L10.3052 25.7812L9.75839 25.7147L10.4025 26.7384L10.9828 26.6719L11.1438 26.1634L11.4021 26.2598L11.2075 26.3529L11.174 26.5124L11.335 26.5456L11.174 26.6719L11.2713 26.991L11.0801 27.3765L11.1438 29.2577L11.9791 31.8102L12.0764 32.352L12.2072 32.8937L12.6567 33.3723L12.8815 33.2793L13.0123 33.0233L13.4283 32.9901L13.3008 32.8937L13.4618 32.671L13.5255 32.5747L13.7838 32.6079V31.9698L13.9113 31.6839L14.1059 31.2984L14.0421 30.4376L14.1696 30.1817L14.4917 30.2149L14.6862 29.959L15.1693 29.9291V29.7031L16.0716 29.2577L16.5547 28.8123L17.1988 28.6196L17.551 28.3005L17.4873 27.9814L17.9066 27.8551L18.0341 27.6291L18.0978 27.9482L18.3259 27.7255L18.4869 27.9814V27.7588L18.5809 27.9183L18.7117 27.7588L18.8392 27.9183L18.9029 27.6291L19.0337 27.9183L19.1947 27.566L19.2249 27.8551L19.3222 27.7887L19.292 27.4696L19.6442 27.5028L20.191 28.8123L20.3219 28.6528L20.2883 28.8422L20.6439 28.9719L20.7714 29.2577L20.4829 29.2245L20.7076 29.5136L20.8049 29.2577L20.9961 30.1518L20.8049 30.8863L20.9961 30.7566L20.8687 30.9494L20.9961 30.8198L21.1571 31.0126L21.2544 30.8198L21.3853 31.0126L21.5127 30.7899L21.8348 30.7267L21.7375 30.534L21.8985 30.6935L22.0931 30.534V30.2149L22.3178 30.6935L22.5124 30.6603V31.4579L22.6734 32.0961L22.7371 31.9066L22.9619 32.4484L22.8982 32.8638L23.0592 32.9602L22.8344 33.4056L22.8982 33.7246L22.9954 33.5983L22.9619 33.7246L22.7371 34.5555L22.9284 34.4591L23.606 35.2236L23.6697 35.2867L23.8945 36.2439L24.25 36.882L25.3772 37.5202L25.6019 37.3307L25.7629 37.457L25.3436 36.8521V36.1176L25.1826 35.7986L24.3775 35.1604L23.8307 35.0009L23.606 34.2996L23.5422 34.0437L23.2202 34.0769L23.1866 33.7246V33.5651L23.606 32.7674V32.5747L23.5724 32.2257H23.606L24.089 32.1293L24.0253 32.5115L24.4748 32.4816L24.9277 32.7342L25.1524 33.3092L25.3772 33.1829L25.4107 33.4687L25.5382 33.3723L26.1487 33.6615L25.9877 34.2365H26.246L26.6989 33.9174L26.5043 33.6615L26.8599 33.821L26.7291 33.6282L26.6653 33.5651L26.7928 33.6282L26.8901 33.7246L26.8263 33.6282L26.7626 33.5319L26.9874 33.5983L26.7928 33.5019H26.9874L26.9538 33.3723L27.2121 33.4388L28.0507 32.927L28.1145 32.3221L28.242 32.2888L27.9535 31.1089L27.6314 30.7267L27.0511 30.4077L26.3097 29.4804L26.407 29.0018L26.7291 28.7791L26.6989 28.5564L26.8263 28.5863L26.7291 28.4268H27.0511L27.2457 28.141L27.5677 28.1077L27.5979 27.9183L27.8897 28.141L28.1145 27.9482L28.2755 28.0778L28.148 28.3636L28.309 28.6827L28.4701 28.6528V28.1077L28.5003 28.2041L29.047 27.9814V27.8551H29.3691V27.6956L29.6274 27.7588L29.5972 27.4065L29.6911 27.6291L29.7582 27.4696L29.8857 27.5361L29.7582 27.1206L30.2413 27.4696L30.1742 27.3433L30.4325 27.1505L30.466 27.2802L30.6572 27.0874L30.7881 27.1838L31.1738 26.9611L31.2711 26.8016L31.1403 26.7384L31.4623 26.6088L31.4959 26.4193L31.6233 26.5124L31.8179 26.1933L31.6569 26.1003L32.0427 26.0338L31.9789 25.8444H32.1735L32.0762 25.6516H32.2674V25.4621L32.4284 25.5552L32.301 25.2062L32.462 25.0135H32.301L32.3982 24.9835L32.2674 24.8539L32.462 24.8872H32.5257L32.7203 24.2158L32.5895 24.1194L33.0088 23.9599L32.8478 23.7704L33.0088 23.6109L32.8478 23.5145L33.0725 23.4514L33.0423 23.2586L32.8176 23.3882L33.0725 23.0991L32.9786 23.0691L32.6867 22.9728L32.2372 23.1323L32.8813 22.6205L32.3345 22.2715H32.0427L32.8176 22.2382L32.301 21.8859L31.9152 21.0883H31.7844L31.4321 20.9952L31.3986 20.8357L31.6569 20.4501L31.7542 20.2906L31.6569 20.1976L31.8816 20.1643L31.8515 19.9084L32.2674 19.6226L32.4955 19.6525V19.3667L31.7206 19.3334L31.4623 19.5594L31.2074 19.812L30.9491 19.3035H30.4962L30.466 18.9512L30.9155 18.7917L31.2074 18.3131L31.4623 17.8677L31.7542 17.6749L31.9789 17.9309L31.7206 18.5357L31.9789 18.4726L31.7542 18.8548L32.5257 18.0571L33.2335 18.0272L33.2033 18.4427L33.3945 18.5058L33.1698 18.6022L33.1061 18.8548L33.3308 18.8249L33.2671 18.9213L33.4616 18.8881L33.4918 18.7917L33.8474 18.8548L34.1057 19.2703L33.9111 19.1739L33.8139 19.3667L33.9749 19.5262V19.3667L34.0386 19.6226L34.1996 19.5893L34.1057 20.1643L34.2969 20.3571L34.1694 20.387L34.2969 20.5166L34.4915 20.1976L34.5888 20.3571V20.1311L34.7498 20.2275L34.6525 20.038L34.941 20.1012V19.8452L35.1356 19.8785L35.1657 19.3667L34.9745 18.8548L34.3607 18.2167L33.9447 18.0571L33.9111 17.8046L34.4915 17.0368L34.3305 16.5914L34.5552 16.2391L34.4915 16.0796H34.6827L34.7162 15.6342L35.2328 15.7938L35.7159 15.1856L35.9708 13.5902L35.9406 12.3472V12.0913L35.6823 11.6459L35.5213 11.3268L35.3939 10.5923L34.941 10.2733H35.102L35.0718 10.1137L34.5217 9.92096L34.4277 9.89105L34.1694 10.0173L34.2332 10.147L34.0386 10.466L33.9447 10.0805L33.8776 10.4328L33.6528 10.0506L33.4281 10.1769L33.2033 10.0805L33.5254 9.15653L33.5891 8.5184L33.6227 7.62435L34.1694 7.2089L34.2969 7.27537V7.11584L34.78 6.92307L34.6827 6.66715L35.3268 6.54085L35.1993 6.7303L35.3268 6.79677L35.8098 6.22179L35.6488 6.1254L35.5549 6.2517L35.424 6.09217L35.1657 5.23135L35.424 4.72284L35.4576 4.65637L35.5851 4.84914L35.6488 4.97544L35.7796 5.07182V5.04191L35.8098 4.94552L35.9708 5.13497L35.8098 4.53007L35.9071 4.40378L35.5549 4.14786L35.6186 3.95509L35.7796 3.92518L35.7461 4.11462L36.2929 4.59322L36.2291 4.97544L36.4874 5.6468L36.682 6.2517L36.5512 6.50762L36.8095 7.01945L37.259 7.62435L38.9027 9.06015L38.7417 8.26248L38.4532 8.00657L38.678 7.75397V7.72074L38.6444 7.6875L38.4834 7.52797L38.48 7.52464L38.3861 7.4349L38.2922 7.36843L38.3861 6.82668L37.9031 6.38132L38.0339 6.15864L37.5173 5.86949L37.42 5.6468L37.1651 5.7731L36.5847 4.88238L36.6485 4.75276L36.8095 4.78599L36.682 4.40378L36.9369 4.59322L36.7759 4.30739L36.9068 3.95509L37.2925 4.01824L37.098 3.85871L36.7759 3.09428L36.6149 2.42291L36.843 2.23346L36.682 2.04069L35.8434 1.81801L35.9708 1.88116L35.6823 1.85125L35.7461 2.07393L35.6488 2.01078L35.5549 2.13708L35.7461 1.59533L35.6186 1.46571L35.4576 1.27626L35.102 1.14664V1.02035L35.5213 1.21312V0.957197L35.9071 0.987111L36.1319 0.860813L36.0044 0.764429L36.199 0.797664L36.1319 0.668045L35.9406 0.70128L35.8098 0.541746L35.6186 0.445363L35.5213 0.508511L35.6488 0.319065H35.4576L35.5851 0.255917L35.3268 0.0631485L34.941 0.159532L34.8437 0.319065L34.8773 0.445363L35.2966 0.541746L34.5888 0.41545L33.8474 0.668045L33.2671 0.860813L33.2033 1.17988L33.0088 1.27626L32.9115 1.33941L32.945 1.37265L33.1061 1.49895L33.4281 1.53218L33.4918 1.65848L33.1698 1.75486L32.8813 1.69171L32.945 1.85125L32.5257 2.20023L32.623 2.45614L32.2037 2.29661V2.32985L32.1735 2.29661L31.7206 2.17031L31.3986 2.32985L31.1738 2.67883H30.466L30.4962 2.51929H30.1742L30.0467 2.58244L30.144 2.93474L29.9192 2.71206L30.0803 2.80845L30.0467 2.61568L29.7582 2.80845L30.0132 2.58244L29.2081 2.77521L29.3389 2.87159L29.2416 2.99789L29.1779 3.09428L29.2752 3.03113H29.3053V3.06104L29.3389 3.12751L29.4026 3.19066L29.4664 3.22057L29.5636 3.31696H29.5301L29.2752 3.38011L29.3691 3.57288L28.9833 3.47649L28.7586 3.66926L28.4701 3.53964L28.5338 4.05148L27.826 3.66926L27.987 3.57288L27.7589 3.50973L27.8562 3.41334L27.6314 3.25381L27.3094 3.31696L26.9538 3.19066L26.9236 3.60611L26.5043 3.63602L26.246 3.60611L26.2795 3.44658L25.7965 3.47649L25.5717 3.69917L25.3772 3.41334L25.3436 3.53964L25.2162 3.41334L24.9914 3.44658V3.60611L25.1524 3.57288L24.5385 3.82879L24.4446 3.98833L24.6056 3.63602L25.3436 2.93474L25.1189 2.74197L25.3134 2.83836V2.71206L24.8941 2.393L24.3775 2.55253L24.4748 2.393L24.089 2.35976L24.3138 2.23346L24.0555 2.10384L23.767 2.35976L23.7334 2.58244H23.606H23.4785L23.5724 2.74197L23.4785 2.64891L23.0592 2.80845L23.1229 2.71206L22.8009 2.67883L22.7371 2.77521H22.8982L21.932 2.96798L21.8683 3.19066L21.771 3.06104L21.8348 3.47649L20.8687 3.44658L20.7412 3.85871L21.0297 4.24424L20.8049 4.91229L20.7714 5.00867L20.6741 4.88238L20.6439 4.78599L20.8049 4.49684L20.6104 4.62646L20.9961 4.21101L20.7076 4.14786L20.5466 3.98833L20.3856 3.82879L20.2246 3.85871V4.01824L19.9361 3.92518L20.1273 4.37054L19.8053 4.21101L19.9663 3.53964L19.869 3.76564L19.4195 3.98833V4.33731L19.292 4.56331L19.0337 4.88238L19.4195 4.94552L19.6442 5.13497L19.6141 5.42412L19.3859 5.58366L19.5805 5.74319L19.3222 5.58366L19.4832 5.07182H19.131L18.9029 5.48727L18.1313 5.96587L17.712 5.61357L18.2286 5.6468L18.8727 5.16821L18.809 4.88238L19.0639 4.49684L19.2585 4.17777V3.92518L19.6778 3.50973L19.547 3.38011L19.3591 3.28705H19.5168L19.6442 3.15742L19.4832 3.12751L19.3558 3.28705L19.292 3.25381L18.809 3.69917L18.4534 3.79556L18.1649 4.21101L18.0676 4.37054L18.2588 4.46692L18.2924 4.72284L17.9368 4.97544L17.7758 4.46692L17.8429 4.53007L17.6813 4.35615L17.7529 4.50098L17.6236 4.99148L17.6182 5.05845L17.1092 5.31432L16.3074 5.49806L15.5498 5.62623L14.83 6.59279L14.7598 6.5931L14.6209 6.6452L14.5697 6.77161L14.3446 7.02307L13.893 7.49994L13.2855 8.10743L13.0609 8.13206L12.7504 8.29807L12.7129 8.4627L12.8331 8.66176L12.8444 8.79385L12.711 8.94134L12.4083 8.98546L11.9464 8.84391L11.79 8.8682L11.7319 9.02705L11.7462 9.55374L11.8151 9.58275L11.8716 9.67643L12.0834 9.6871L12.3698 9.67978L12.5005 9.7261L12.5647 9.86084L12.5054 9.96098L12.0397 10.21L11.9881 10.3512L11.9306 10.3765L11.9048 10.4471L11.9779 10.5964L12.2301 10.8276L12.1537 10.8674L12.275 11.1039L12.3737 11.2272L12.365 11.3119L12.2771 11.4088L12.1715 11.5153L11.8589 11.3109L11.6288 11.4168L11.5364 10.9959L11.3507 10.9431L11.3123 10.9688L11.099 10.7043L11.0337 10.5789L10.9566 10.415L10.7957 10.2721L10.5327 10.2541L10.0404 10.0631L9.66432 10.0263L9.59114 10.0863L9.35205 10.3704L9.26542 10.9735L9.03975 11.2156L8.86742 11.3906L8.83131 11.5646L8.76235 11.7409" fill="#474747"/>
<path d="M32.8478 0L32.623 0.159533L32.7203 0.222683L32.9451 0.415451L32.9115 0.285831L32.8478 0Z" fill="#474747"/>
<path d="M23.2838 0.827576L22.8645 1.17988L23.0591 1.27626L23.3811 1.21311L23.4448 1.05358L23.2838 0.827576Z" fill="#474747"/>
<path d="M22.8343 1.24303L22.8008 1.37265H22.9618L23.0591 1.30618L22.8343 1.24303Z" fill="#474747"/>
<path d="M23.4112 1.24303L22.9617 1.4358L23.22 1.65848L23.6057 1.69171V1.37265L23.5085 1.27626L23.4112 1.33941V1.24303Z" fill="#474747"/>
<path d="M23.8306 1.49895L23.6394 2.01078L24.1527 1.81801L23.9614 1.59533L23.8642 1.72163L23.8306 1.49895Z" fill="#474747"/>
<path d="M32.9451 1.49895L32.8176 1.59533L33.0424 1.62524L32.9451 1.49895Z" fill="#474747"/>
<path d="M29.3691 1.53218L28.8223 1.62524L29.1141 1.78477L29.3691 1.75486V1.53218Z" fill="#474747"/>
<path d="M28.1782 1.72163L28.309 1.9144L28.1782 1.88116L27.9199 1.81801L27.9535 2.10384L28.2755 2.29661L28.4701 2.20023L28.8223 2.01078L28.7586 1.97422L28.7921 1.72163H28.1782Z" fill="#474747"/>
<path d="M28.9832 2.393L28.9194 2.64892V2.67883L29.3052 2.55253L29.275 2.45615L28.9832 2.393Z" fill="#474747"/>
<path d="M37.0978 5.04191L37.0039 5.20144L37.1649 5.39088L37.0978 5.04191Z" fill="#474747"/>
<path d="M38.8054 9.18977L38.9027 9.60189L38.9362 9.3493L38.8054 9.18977Z" fill="#474747"/>
<path d="M35.263 9.79466L35.1355 10.0506L35.3603 10.4959L35.8433 10.9446L36.1318 11.4232L37.0979 13.208L37.0342 12.7926L37.2925 12.7626L37.4535 12.9853L37.3898 12.7926L36.7759 12.3472L36.5511 11.7091L36.7457 11.5163L37.0979 11.6758L36.5511 11.1972L35.9406 10.6555L35.263 9.79466Z" fill="#474747"/>
<path d="M38.9026 12.4103L38.708 12.6031L38.7416 13.1449L38.9026 12.4103Z" fill="#474747"/>
<path d="M38.6443 13.208L38.5168 13.2412V13.5271L38.5806 13.7198L38.6443 13.208Z" fill="#474747"/>
<path d="M37.165 13.4008L37.5508 14.4544L37.259 14.5807L37.3898 14.707L37.2925 14.933L37.259 14.9961L37.4871 15.3451L37.4904 15.3484L37.5508 15.4415L37.8393 15.1556L37.4871 15.0925L37.4535 14.8997L37.6783 14.9629L37.7756 14.707L38.3559 14.7734V14.2616L38.7081 13.783L38.5807 13.8794L38.3559 13.4307L38.3224 13.6866L38.0003 13.783L37.165 13.4008Z" fill="#474747"/>
<path d="M38.0004 15.2819L37.8092 15.3783L38.0339 15.601L37.7119 15.5379V15.7938V15.8902L37.8092 16.2092L37.8729 16.1428H37.9031L37.9702 16.2724L38.0004 16.3987L38.0641 17.07L37.6784 18.0272L37.4871 17.9308L37.5509 17.6749L37.3899 17.8046L37.4871 18.6953L36.4875 19.1107L35.877 20.038L35.9709 20.1975L36.4237 20.1012V19.7821L36.521 19.9084L37.0041 19.3999L37.3899 19.2403L37.4201 19.6857L37.7421 19.7821L37.7756 19.6226L38.0004 19.2403L37.7756 19.1107V18.888L37.9031 19.0143V18.888L38.0641 18.9213L37.9702 19.0808L38.356 18.888L38.4533 18.569L38.5807 18.7917L38.5472 18.4427H38.7417L38.678 18.1535H38.7417H38.8055L38.839 18.3463V18.4094V18.5058L38.8692 18.4427L39 17.994L38.8055 17.7713L38.7753 17.3891L38.517 16.8474L38.678 16.7177L38.5807 16.0497L38.0004 15.2819Z" fill="#474747"/>
<path d="M37.1952 19.5594L36.9369 19.5893L36.7457 19.9084L36.6484 19.8452L36.4539 20.3238L36.5847 20.2275L36.7457 20.5465L36.843 20.387L36.9705 20.038L37.2288 20.1012L37.326 19.7489L37.1952 19.5594Z" fill="#474747"/>
<path d="M36.0044 20.2275L35.5549 20.6429L35.7797 20.8357L35.6187 20.7393L35.716 20.9952L35.9407 20.8656L35.7797 20.6761L35.877 20.5465L36.0682 20.8357L36.0044 21.5037L36.2292 21.5669V21.281L36.2929 21.6333L36.4875 21.3774L36.521 20.5166L36.0044 20.2275Z" fill="#474747"/>
<path d="M36.229 22.9395L36.0378 23.1323L36.1318 23.1622L36.229 22.9395Z" fill="#474747"/>
<path d="M33.2333 25.3957L32.7502 26.3529V26.6088L33.1696 27.0575L33.4614 25.4921L33.2333 25.3957Z" fill="#474747"/>
<path d="M34.0384 28.6528L33.3004 28.7459L33.3306 29.8626L33.1058 29.8327H33.0723L33.0085 30.0221L33.1696 30.4376L33.2333 30.5672L33.4279 30.6935V30.5007L33.6224 30.534L33.5251 30.9494L33.8472 30.9793L34.0384 30.7566L34.4577 31.0458L34.394 30.6935L34.7797 31.0458L35.1018 30.9793L35.1353 31.1721L35.1655 30.9162L34.9743 30.9793L34.8435 30.7566L35.038 30.6303L34.9106 30.5672H34.716L34.6523 30.7566L34.4913 30.5007L34.233 30.5971L34.2665 30.7566L33.9747 30.5672L33.7834 30.1817L34.1994 29.3208L34.0082 28.9386L34.0384 28.6528Z" fill="#474747"/>
<path d="M28.7585 28.7459L27.9869 28.8755L27.6951 29.2245L27.9198 29.6399L28.1781 29.7031L28.5639 29.4172L28.8222 28.9054L28.7585 28.7459Z" fill="#474747"/>
<path d="M35.6184 31.0126L35.2327 31.1389L35.6184 31.428V31.5876H35.2964L35.3601 31.8435L35.6822 32.2257L35.6486 32.0661L35.7795 32.0329L35.6285 31.6175L35.9707 31.6507L35.8097 31.1721L35.6184 31.0126Z" fill="#474747"/>
<path d="M33.3945 31.1089L33.6226 31.2984V31.3316L33.8138 31.6175L33.9447 31.5875L33.9749 31.1721L33.3945 31.1089Z" fill="#474747"/>
<path d="M34.7495 31.2352V31.5543L34.9105 31.3948L35.1353 31.5244L34.7495 31.2352Z" fill="#474747"/>
<path d="M34.1694 31.7138L34.2969 32.352L34.78 31.9066V31.7138L34.6525 31.8102L34.1694 31.7138Z" fill="#474747"/>
<path d="M35.1991 31.7471L35.0046 32.3852L34.9106 32.671L35.0381 32.3852L35.1991 32.1625V31.7471Z" fill="#474747"/>
<path d="M34.8135 31.9698L34.6827 32.4151L34.6189 32.4816L34.4915 32.5747L34.7799 32.8638L34.9108 32.7342L34.8437 32.4151L34.9745 32.0329L34.8135 31.9698Z" fill="#474747"/>
<path d="M33.0725 32.1625L33.106 32.4816L32.9785 32.3852L33.0087 32.6079L32.784 32.8638L32.0762 33.7579L32.4619 33.4388L32.784 32.8937L32.8477 32.8638L33.2335 32.5447L33.0725 32.1625Z" fill="#474747"/>
<path d="M35.8768 32.2257L35.9405 32.6079L35.6185 32.7043V32.927H35.4239L35.1354 33.2793L35.1992 33.0533L34.9744 32.9602L34.4578 33.4388L34.3303 33.8509L34.4578 33.9174L34.6524 33.4687L35.0381 33.5651L35.1354 33.3424L35.4239 33.4687L35.3602 33.9473L35.7795 34.0437L35.907 33.9174L35.9707 34.1401L36.1015 33.9174L35.9405 33.6282L36.068 33.3424L36.3263 33.7246L36.2927 33.4388L36.4873 33.2128L36.3598 32.7043H36.1988L36.229 32.3852L35.8768 32.2257Z" fill="#474747"/>
<path d="M35.263 32.2556L35.1992 32.3221L35.1355 32.4484L35.2328 32.5115L35.4877 32.3852L35.4575 32.2556H35.263Z" fill="#474747"/>
<path d="M20.1272 32.2888L19.9998 32.4151L20.097 32.5447L20.1272 32.2888Z" fill="#474747"/>
<path d="M13.7837 32.8638L13.8475 32.8937L14.0085 33.0233L13.8475 32.9602L13.8173 33.1197L13.72 33.6615L13.6562 33.5319L13.7502 34.1068L13.881 34.5555L14.3943 34.5854L14.6526 34.2664L14.4278 33.5651L13.9447 32.8638H13.8475H13.7837Z" fill="#474747"/>
<path d="M34.3939 34.0105L34.3604 34.1401L34.5549 34.0105H34.3939Z" fill="#474747"/>
<path d="M31.8815 34.3628L31.4957 35.0973L31.2374 35.1937L31.3683 35.2568L31.271 35.4163L30.5934 35.639L30.1439 36.3104L29.3388 36.6295L29.2079 37.2011L28.5974 37.1081L28.4699 36.9784L28.0808 37.3939V37.7462L28.2754 37.8392L28.2116 38.0653L28.4364 38.1284H28.2754L28.4699 38.2547L28.3391 38.3843L28.631 38.2879L28.7584 38.9892L29.4662 38.8629L29.5635 39.1487L30.1439 38.8297L30.4324 38.8629V38.9892L30.8517 38.8928L30.8852 39.2119L31.0764 39.1155L31.7205 38.6701L31.6232 38.5738L31.7205 38.607L31.8815 38.2879L31.6568 38.1583L31.9453 37.8093L32.0425 37.8725L32.3646 37.6166L32.3008 37.2676L32.5893 36.9485L32.4954 36.8189L32.7503 36.9153L33.0422 36.7558L32.4954 36.4998L32.4283 36.3735L32.5893 36.3104L32.0761 35.8318L32.4283 35.7653L32.2371 35.5759L32.8174 35.3831L32.5893 35.1937L33.1395 34.8746L32.6866 34.7782L32.4954 34.8746L32.5256 34.6818L32.3008 34.8081L32.3646 34.5555L32.0761 34.3628L31.9453 34.5854L31.8815 34.3628Z" fill="#474747"/>
<path d="M20.4492 34.9045L20.513 35.0973L20.58 35.0009L20.4492 34.9045Z" fill="#474747"/>
<path d="M37.4534 34.9677L37.3259 35.2867L37.4534 35.1937V34.9677Z" fill="#474747"/>
<path d="M37.1951 35.2236L36.9368 35.7986L37.0676 36.2772L37.4198 36.4699L37.2286 36.2772L37.1649 35.9581L37.6144 35.9249L37.2923 35.7986L37.5171 35.6058V35.3831L37.034 35.7986L37.2286 35.6058L37.1951 35.2236Z" fill="#474747"/>
<path d="M21.1907 35.639L21.3517 36.0545L22.0293 36.4998L22.4788 37.1081L22.9954 37.3607L23.1564 37.9689L23.6059 38.2879L23.767 38.4142L24.411 39.3415L25.6019 40.1392L25.9239 40.3619L25.8937 40.2023L26.2158 40.2987L26.2795 40.1691L26.4707 40.3286L26.6653 39.275L26.4405 38.956L26.0548 38.9261L25.9877 39.0524L26.0548 38.8629L25.8602 38.8297L25.8267 38.4475L25.2497 38.3178L25.5046 37.9356L25.2799 37.8093L25.1759 37.8625L25.1054 37.7661L25.1524 37.7761L24.9914 37.6498L24.8605 37.5867L24.8304 37.713L24.1225 37.1081L24.089 37.3307L23.6059 36.8521L23.4785 36.7558L22.6734 36.3403L22.7371 36.1808L22.3513 35.8318L21.1907 35.639Z" fill="#474747"/>
<path d="M35.9405 35.7986L35.3602 36.3104L33.9446 36.4367L33.8137 36.6926L33.6527 36.6295L33.5253 36.789V36.8521L33.428 37.138L33.3307 37.1081L33.4615 37.4271L33.3944 37.3607L33.2032 37.6166V37.9057L32.9114 38.3178L32.9785 38.607L33.267 38.5439L33.2334 39.1155L33.2032 39.3415L33.4615 39.3083L33.6863 39.275L33.589 38.2547L33.8775 38.0653H34.0385L33.911 38.4142L34.2666 38.5439L34.1995 38.8297H34.4276L34.4914 38.6701L34.8436 38.5439L34.5216 38.2879L34.6826 38.0952L34.1358 37.6797L34.2968 37.713L35.1354 37.0117L34.2968 37.2344L34.0385 37.5534L33.8473 37.5867L33.5555 37.3307L33.6527 36.882L35.5548 36.4367L35.9405 35.7986Z" fill="#474747"/>
<path d="M27.7285 36.1176L27.5977 36.214L27.6949 36.3735L27.8258 36.214H27.7922L27.7285 36.1176Z" fill="#474747"/>
<path d="M37.004 36.3403L36.9067 36.4367L36.9705 36.563L37.165 36.4699L37.004 36.3403Z" fill="#474747"/>
<path d="M38.2585 36.4998L37.97 36.6594L38.2249 36.6295L38.2585 36.4998Z" fill="#474747"/>
<path d="M37.034 36.7225L36.9368 36.882L37.2588 36.8189L37.1951 36.7558L37.034 36.7225Z" fill="#474747"/>
<path d="M21.4153 36.8521L21.8346 37.0416L21.5763 36.8821V36.8521H21.4153Z" fill="#474747"/>
<path d="M22.8645 36.8521L23.1865 37.0748L23.0255 37.1081L22.8645 36.8521Z" fill="#474747"/>
<path d="M38.2249 37.0117L37.648 37.138L37.1951 37.3939L37.1313 37.5867L37.2588 37.3607L37.3897 37.457L38.0337 37.2344L38.4195 37.2975L38.2249 37.0117Z" fill="#474747"/>
<path d="M36.0042 37.2011L35.6486 37.2344L35.5547 37.4271L36.0042 37.2011Z" fill="#474747"/>
<path d="M35.1992 37.2343L34.8772 37.2676L34.9107 37.3939H34.9409L35.1992 37.2343Z" fill="#474747"/>
<path d="M22.2539 37.4271L22.123 37.457L22.2841 37.6498L22.5122 37.8093L22.5424 37.6166L22.2539 37.4271Z" fill="#474747"/>
<path d="M24.7329 37.457L24.7665 37.6498L24.8604 37.5534L24.7329 37.457Z" fill="#474747"/>
<path d="M25.9239 37.5202L25.7327 37.5867L25.8601 37.6166L25.9239 37.6797V37.5202Z" fill="#474747"/>
<path d="M36.6483 37.5534L36.2927 37.7462L36.5846 37.8725L36.8429 37.6797L36.6483 37.5534Z" fill="#474747"/>
<path d="M25.8937 38.032L25.8601 38.1284H26.1184L25.8937 38.032Z" fill="#474747"/>
<path d="M23.0592 38.4774L22.8982 38.5738L23.2202 38.7964L23.0592 38.4774Z" fill="#474747"/>
<path d="M34.9408 38.5106L34.7798 38.7665L34.7161 39.0524L34.9744 38.8297H34.8435L34.9408 38.5106Z" fill="#474747"/>
<path d="M26.6652 38.6369L26.3096 38.6701L26.1821 38.8629H26.5042L26.6014 39.1155L26.9872 39.182L27.051 38.9892L26.7927 38.956L26.6652 38.6369Z" fill="#474747"/>
<path d="M34.7799 38.6369L34.5887 38.7333L34.5552 38.9892L34.6826 38.956L34.7497 38.7964L34.7799 38.6369Z" fill="#474747"/>
<path d="M27.4703 38.956L27.4368 39.2119H27.6313L27.7588 39.0225L27.4703 38.956Z" fill="#474747"/>
<path d="M23.7031 39.2119L23.8306 39.4047V39.275L23.7031 39.2119Z" fill="#474747"/>
<path d="M36.5846 39.3415L36.1988 39.4047L36.1016 39.5642L36.5846 39.3415Z" fill="#474747"/>
<path d="M36.7457 39.531L35.7796 39.8833L35.0717 40.3918L35.0047 40.5513L34.9409 40.6809L35.1992 40.6178L35.424 40.4582L36.7457 39.531Z" fill="#474747"/>
<path d="M35.7794 39.6905L35.5211 39.7536L35.4238 39.8833L35.7157 39.7869L35.7794 39.6905Z" fill="#474747"/>
<path d="M35.424 39.8201L35.2629 39.8833L35.3267 39.9464L35.424 39.8201Z" fill="#474747"/>
<path d="M34.7497 39.9132L34.5551 40.1392L34.1056 40.2655L33.6226 40.2322L33.3945 40.425L33.3005 40.4882H33.3945L34.1694 40.3619L34.8134 40.0096L34.7497 39.9132Z" fill="#474747"/>
<path d="M26.6318 40.2987L26.5043 40.5513L26.2158 40.6477L26.8599 40.7108L26.8263 40.8704L27.5342 40.9368L28.0172 40.8405L28.9531 40.9668L30.5298 40.9036L30.8183 40.9368L30.7545 40.5845L30.144 40.6477L29.8522 40.3619L29.1142 40.2987L28.7921 40.5214L28.081 40.5513L27.7589 40.3619L26.6318 40.2987Z" fill="#474747"/>
<path d="M30.6268 40.2987L29.9492 40.425L30.335 40.4582L30.6268 40.2987Z" fill="#474747"/>
<path d="M32.4283 40.425L32.3344 40.4882L32.5893 40.6178L32.0425 40.5845L31.8513 40.7441L31.9788 40.8704L33.0422 40.4882L32.4283 40.425Z" fill="#474747"/>
<path d="M31.6233 40.6178L31.4958 40.8405H31.7843L31.8514 40.6178H31.6233Z" fill="#474747"/>
<path d="M31.0464 40.6809L30.7881 40.7108L31.0766 40.9368L31.3684 40.7108L31.0464 40.6809Z" fill="#474747"/>
<path d="M33.3642 40.6809L32.8811 40.8405L33.3306 40.9368H33.3642L33.5554 41L33.7499 40.8704V40.8405L33.3943 40.6809H33.3642Z" fill="#474747"/>
<path d="M2.0294 10.2101L1.99585 10.3996L2.0294 10.466L2.12668 10.2733L2.0294 10.2101Z" fill="#474747"/>
<path d="M1.32163 11.7722L1.28809 11.8686L1.4491 11.7722H1.32163Z" fill="#474747"/>
<path d="M1.67374 13.1781L1.64355 13.5603L1.93205 13.6235L1.96559 13.4639L2.19035 13.4307L1.67374 13.1781Z" fill="#474747"/>
<path d="M3.02905 27.5361L3.22026 27.7588H3.44502L3.02905 27.5361Z" fill="#474747"/>
<path fill-rule="evenodd" clip-rule="evenodd" d="M0.614169 14.7687L0.380469 15.327L0.226807 16.085L0.230007 16.6465L0.74222 16.0819L1.03034 15.1557L0.614169 14.7687Z" fill="#474747"/>
<path d="M25.4408 3.25381L25.2161 3.28705L25.3771 3.38011L25.4408 3.25381Z" fill="white"/>
<path d="M32.8474 2.64892L32.7501 2.71207L32.5589 2.80845L32.6562 3.03113L32.7837 3.31696L32.5589 3.57288L32.7501 3.31696L32.6227 3.25381L32.6562 3.03113L32.5254 2.77521L32.7501 2.67883L32.8474 2.64892Z" fill="white"/>
<path d="M30.7544 2.74197L30.8181 3.22057L30.7879 3.19066L30.7544 2.74197Z" fill="white"/>
<path d="M27.856 4.59322L27.9532 5.55042L28.5973 6.47771L29.6909 6.88983L30.7241 6.7303L30.818 6.85992L30.7241 6.76354L29.9828 6.95631L30.3685 7.40167L30.3048 7.9135L29.436 8.48517L30.3048 7.65759L30.0465 7.04937L29.1777 6.76354L29.0468 7.04937L28.6946 7.01946H29.0468L29.1441 6.82669L28.6309 6.57077L27.9197 5.64681L27.856 4.59322Z" fill="white"/>
<path d="M23.606 3.09428L23.8006 3.28705L24.1528 3.22058V3.09428L24.3775 3.19067L23.9918 3.3502L23.8643 3.44658L23.6697 3.3502L23.6865 3.41335H23.7033L23.7335 3.60612L23.6865 3.41335H23.606L23.4785 3.38011L23.606 3.31697L23.6697 3.28705L23.606 3.09428Z" fill="white"/>
<path d="M24.3473 3.98833H24.3775L23.928 4.33731L24.089 4.49685L23.928 4.37055L23.606 4.49685L24.3473 3.98833Z" fill="white"/>
<path d="M21.5461 4.97544V5.00868L21.5126 5.23136L21.4153 5.04191L21.5126 5.00868L21.5461 4.97544Z" fill="white"/>
<path d="M20.835 5.00868H21.0933L21.1905 5.20145L20.8685 6.38133L21.157 5.20145L20.835 5.00868Z" fill="white"/>
<path d="M21.8011 5.23136L22.0929 5.32775L21.6099 5.29451L21.8011 5.23136Z" fill="white"/>
<path d="M17.2625 5.45404L17.712 5.55042L17.4872 5.61357L17.2625 5.45404Z" fill="white"/>
<path d="M21.6099 5.70996L22.1902 5.7432L21.7373 5.77311L21.6099 5.70996Z" fill="white"/>
<path d="M16.6485 5.96588L16.4573 6.44448L16.4472 6.45445L16.4238 6.50763L16.0715 6.76355L16.36 7.72075L17.5844 8.1362L18.2922 8.6148L18.4197 9.15654L18.5505 9.25293L18.8088 9.41246L19.3221 10.147L19.3858 10.466L19.1309 9.95421L18.5505 9.28284L18.4197 9.15654L18.2922 8.71118L17.7119 8.26249L16.4238 7.84704L16.4875 8.07305L16.2963 8.42203L16.4573 8.07305L16.0715 6.76355L16.4472 6.45445L16.6485 5.96588Z" fill="white"/>
<path d="M11.9153 10.6256L11.8851 10.8483L11.7241 10.815L11.9153 10.6256Z" fill="white"/>
<path d="M2.96204 11.8055L2.80103 12.1245V11.9317L2.96204 11.8055Z" fill="white"/>
<path d="M10.8854 13.1449L11.08 13.3675L11.3048 13.3376L10.919 13.4972L10.8217 13.7199L10.9827 14.1353L10.7882 14.1984L10.4024 14.4211V14.6438L10.0804 14.5807H9.98307L10.0166 14.358L9.69458 14.2284L9.91933 13.7199L10.2749 13.3376L10.4997 13.4639L10.597 13.2413L10.6607 13.4008L10.7244 13.3044L10.8854 13.1449Z" fill="white"/>
<path d="M4.44482 13.8461L4.8306 13.9093L4.5723 14.0688L4.44482 13.8461Z" fill="white"/>
<path d="M4.92786 14.4843L5.05534 14.5175V14.5474L4.96141 14.9961L4.76685 15.026L4.92786 14.4843Z" fill="white"/>
<path d="M3.6062 16.5914L3.73703 17.0069L3.99533 17.2595L3.76722 17.1332L3.6062 16.5914Z" fill="white"/>
<path d="M5.34717 21.537L5.63566 21.6001L5.76649 21.537H5.34717Z" fill="white"/>
<path d="M10.1139 23.1323L9.88574 23.3849V23.355L10.1139 23.1323Z" fill="white"/>
<path d="M19.3556 25.7812L18.9698 26.0039L18.8726 26.8315L18.9363 26.0039L19.3556 25.7812Z" fill="white"/>
<path d="M18.0674 26.2266L18.6477 26.8647L18.1647 26.4825L18.0674 26.2266Z" fill="white"/>
<path d="M21.0934 6.50762L21.127 6.7303L21.2947 6.70704L21.3182 6.70039L21.3215 6.70371L21.3517 6.70039L21.5463 6.85992V7.24214L21.5128 6.85992L21.3215 6.70371L21.2947 6.70704L21.127 6.76354L21.1236 6.77019L21.127 6.79678L21.0364 7.02278L20.8687 7.49806L20.7479 7.76727L21.0297 8.26249L20.7412 7.78389L20.7479 7.76727L20.7412 7.75397L21.0364 7.02278L21.1236 6.77019L21.0934 6.50762Z" fill="white"/>
<path d="M31.335 6.85992L31.8516 7.81712H31.7207L31.818 7.78388L31.657 7.46482L31.335 6.85992Z" fill="white"/>
<path d="M28.7586 8.61478L28.6613 8.74108L28.8223 8.8707L28.5674 8.80423L28.7586 8.61478Z" fill="white"/>
<path d="M28.5607 8.81088L28.5338 8.87071L28.2118 9.15654L28.1783 9.18977L27.7287 8.93386L27.2759 8.87071L27.7589 8.93386L28.2118 9.15654L28.5338 8.83747L28.5607 8.81088Z" fill="white"/>
<path d="M35.0383 9.50883L34.9746 9.6019L35.2631 9.79466L35.0383 9.50883Z" fill="white"/>
<path d="M33.7166 9.73152V9.9542L33.8776 9.82791L33.7166 9.73152Z" fill="white"/>
<path d="M34.8134 10.3996L34.8436 10.466L34.8772 10.496L35.1019 10.6256L35.1656 10.9746V10.7851L35.1992 10.9446L35.3602 10.9114L35.1992 11.0377L35.0046 11.2305L34.7497 11.7423L34.8772 11.9018H34.7799V12.0614V12.5699V12.7294L34.2666 13.3675L34.0385 13.8162L33.6226 14.1652L34.0721 13.5603L33.7165 13.6567L34.1056 13.5271L34.7799 12.5699L34.7497 12.2508L34.6524 12.1877L34.7497 12.0913V12.0614L34.6826 11.8055L35.1019 10.9114L35.1355 10.8483L35.0717 10.6256L34.8772 10.5292L34.7497 10.466L34.8134 10.3996Z" fill="white"/>
<path d="M17.1652 11.0709L17.3899 11.1042L17.1987 11.2637L17.0042 11.1341L17.1652 11.0709Z" fill="white"/>
<path d="M24.25 11.1972H24.4748L24.5385 11.4232L24.6358 12.1544L24.572 12.0614V12.1544L24.7331 12.4104L24.6358 12.6663L24.6056 12.3804L24.4446 12.3472H24.572L24.4446 11.2637L24.1527 11.2936L24.1829 11.513L24.1863 11.5163L24.1829 11.5196L24.2165 11.7722L24.1225 11.5828L24.1829 11.5196V11.513L23.928 11.2936L24.25 11.1972Z" fill="white"/>
<path d="M26.3097 11.3269H26.4405V12.0614L26.1487 12.3804L26.3097 12.4436L25.5717 12.9853L25.4409 13.2712L25.1188 13.4307L24.7666 13.3376L25.2497 13.208L25.6019 12.7926L26.0547 12.1877L26.3097 11.3269Z" fill="white"/>
<path d="M21.4491 11.4531L21.4793 11.5828L21.0935 11.7091L21.1908 11.9949L21.0633 12.284L20.9661 11.7722L21.4491 11.4531Z" fill="white"/>
<path d="M23.7334 13.4307L23.8307 13.6567L23.6697 13.9425L23.7334 13.4307Z" fill="white"/>
<path d="M21.3518 13.7498L21.4793 13.9758L21.2243 14.0688H21.1908L21.0935 13.8794L21.3518 13.7498Z" fill="white"/>
<path d="M18.4535 13.8794L18.326 13.9758L18.5508 14.1652L18.2422 14.3314L18.1986 14.3646L18.2925 14.5175L18.1315 14.5474L18.42 14.7734L18.2925 14.8665L17.9705 14.5474L18.1986 14.3646L18.1952 14.358L18.2422 14.3314L18.4535 14.1652L18.2288 13.9093L18.4535 13.8794Z" fill="white"/>
<path d="M29.339 14.0057L29.5 14.1021L29.2417 14.3879L29.339 14.0057Z" fill="white"/>
<path d="M21.2881 14.4211L21.5464 14.5474L21.4156 14.6139L21.2881 14.4211Z" fill="white"/>
<path d="M15.2666 14.6438L16.2327 15.0925L16.5547 15.0593L16.2327 15.1856L15.3605 14.7734L14.8473 14.9961L14.6527 15.4747L14.5554 14.9961L14.911 14.7734L15.2666 14.6438Z" fill="white"/>
<path d="M34.6827 14.677L34.6525 15.026L34.4277 14.7402L34.6827 14.677Z" fill="white"/>
<path d="M21.0632 14.8665L21.1907 14.9629L20.9324 15.1556L21.0632 14.8665Z" fill="white"/>
<path d="M17.3899 15.3451V15.6974L17.1987 15.4747L17.3899 15.3451Z" fill="white"/>
<path d="M14.9749 16.8773H15.6189L15.7162 16.9737L15.3942 17.1L14.9749 16.8773Z" fill="white"/>
<path d="M18.8392 17.7713L18.9029 17.8976L18.6479 17.8345L18.8392 17.7713Z" fill="white"/>
<path d="M23.7336 20.5166L23.8946 20.8357L23.6061 20.7061L23.4451 20.6429L23.6061 20.5798L23.7336 20.5166Z" fill="white"/>
<path d="M31.335 21.6965L31.3987 21.8228L31.1102 21.9823L31.2075 21.9192L31.0767 21.8228L31.2712 21.8859L31.1739 21.7264L31.335 21.6965Z" fill="white"/>
<path d="M31.5931 21.7264L31.6166 21.763L31.6233 21.7596V21.7696L31.7206 21.9192L31.5931 21.9524L31.6233 21.7696L31.6166 21.763L31.4321 21.8228L31.5931 21.7264Z" fill="white"/>
<path d="M31.8515 22.205L31.496 22.3014L31.3987 22.7501L30.7546 23.5145L30.6573 23.6408H30.654L30.6271 23.674V23.93H30.8854L30.8183 24.1194L30.5298 23.9599L30.6271 23.674L30.3688 23.5777L29.7583 23.3882L30.0132 23.3217L30.3051 23.5478L30.4024 23.5777L30.4661 23.5478H30.6271L30.6909 23.5145H30.7546L31.3987 22.7169L31.496 22.2715L31.8515 22.205Z" fill="white"/>
<path d="M32.14 22.4609L32.3346 22.6537L32.1736 22.78L32.0763 22.6836L32.0427 22.6205L32.0763 22.5906L32.14 22.4609Z" fill="white"/>
<path d="M30.9492 22.6205L31.2377 22.6537L31.013 22.7169L30.9492 22.6205Z" fill="white"/>
<path d="M31.8514 23.4181L31.9152 23.5477L31.6904 23.6408L31.8514 23.4181Z" fill="white"/>
<path d="M19.4194 23.4514L19.7415 23.4813L19.4194 23.6408V23.4514Z" fill="white"/>
<path d="M29.2753 24.2158L29.017 24.4086L28.856 24.3122L29.2753 24.2158Z" fill="white"/>
<path d="M19.4531 24.3122L19.6443 24.4385L19.4531 24.5349V24.3122Z" fill="white"/>
<path fill-rule="evenodd" clip-rule="evenodd" d="M22.3078 25.1195L21.9307 24.9999L22.3078 25.1195Z" fill="white"/>
<path d="M22.3597 25.0529L21.8359 24.8884L21.7875 24.876L22.3112 25.0406L22.3597 25.0529Z" fill="white"/>
</g>
<defs>
<clipPath id="clip0">
<rect width="39" height="41" fill="white"/>
</clipPath>
</defs>
</svg>
