<svg width="41" height="37" viewBox="0 0 41 37" fill="none" xmlns="http://www.w3.org/2000/svg">
<path d="M13.5802 5.56476L13.719 5.49918L13.8505 5.44092L13.9747 5.40449L14.0988 5.38266H14.2741L14.4202 5.42637L14.5955 5.52837L14.7781 5.69592L14.9242 5.87073L15.0265 6.06743L15.1142 6.24953L15.2749 6.46077L15.4429 6.54818L15.7278 6.61376L16.0857 6.59193L16.4145 6.57006H16.5898L16.692 6.53363L16.7286 6.50448L16.7432 6.33694L16.7213 6.2131L16.6775 6.12569C16.6775 6.12569 16.6556 6.08198 16.6263 6.08198C16.5971 6.08198 16.5094 6.06011 16.5094 6.06011L16.4364 6.031L16.4071 5.94359L16.4364 5.69592L16.4948 5.53565L16.5971 5.34628L16.7505 5.1569L16.8528 5.02579L16.882 4.94565L16.9478 4.90923L17.1011 4.89467L17.2034 4.90195H17.2692L17.3057 4.85097L17.2692 4.74896L17.2034 4.60329L17.1961 4.43575L17.2253 4.28276L17.2911 4.13709L17.4372 3.99142L17.6563 3.86031L17.9631 3.78745L18.2188 3.75102L18.5183 3.72187L18.7302 3.70004L19.0224 3.67089L19.278 3.62719L19.4607 3.5179L19.5775 3.36492L19.6214 3.21925L19.6068 3.03715L19.5557 2.93518L19.468 2.8259L19.3657 2.73849L19.2853 2.70938L19.1612 2.71666L19.0735 2.70938L19.0224 2.66568L19.0297 2.57099L19.1027 2.48358L19.1831 2.418L19.2853 2.39613L19.3949 2.418L19.5995 2.52724L19.8332 2.70938L19.9793 2.78951L20.0743 2.89148L20.1181 2.93518H20.1765L20.2131 2.8405L20.2058 2.71666L20.1912 2.61469L20.2423 2.59282L20.3007 2.63653L20.3592 2.75309L20.4103 2.84777L20.4249 2.90603L20.4907 2.94974H20.6295L20.7391 2.99344L20.9509 3.08813L21.1189 3.17554L21.287 3.19741L21.9956 3.20469L22.0467 3.21197L22.0833 3.2921L22.1271 3.40866L22.222 3.49607L22.3462 3.54705L22.5288 3.55433L22.7553 3.56161L22.8794 3.57616L22.9817 3.59072L23.0328 3.54701L23.0474 3.49603L23.1424 3.46688L23.2446 3.47416L23.325 3.48143L23.3469 3.52514L23.3688 3.6417L23.398 3.73639L23.4857 3.77281L23.5661 3.78737L23.6464 3.78009L23.7049 3.75822L23.7487 3.67081L23.7779 3.5834L23.8363 3.53969L23.9459 3.49599L24.0555 3.48871L24.1578 3.51782L24.2455 3.56153L24.2966 3.6271L24.3039 3.75094L24.2747 3.96947L24.2528 4.20986L24.209 4.44298V4.50856L24.1797 4.55227L24.1432 4.5887L23.9898 4.60325L23.6684 4.5887H23.4784L23.3908 4.60325L23.3469 4.66151L23.2739 5.02575L23.2008 5.3827L23.0694 5.63766L22.8502 5.92904L22.6676 6.11841L22.5507 6.2131L22.4922 6.26408L22.5068 6.31506L22.6749 6.28595L22.8867 6.31506L23.1497 6.38792L23.4711 6.52631L24.1286 6.92697L24.4719 7.16009L24.7203 7.31308L25.0417 7.45147L25.3412 7.56071L25.5896 7.69183L25.7576 7.83026L25.9768 8.03423L26.2106 8.20905L26.364 8.32561L26.5174 8.39847L26.5977 8.44217L26.627 8.56601L26.7439 8.79913L26.8388 8.91569L27.0288 9.03953L27.2333 9.09051H27.6643L28.0076 9.08323L28.1903 9.07596L28.2341 9.05408L28.2779 8.90841L28.329 8.63891L28.4094 8.31842L28.5628 7.97601L28.7089 7.62637L28.8111 7.31316L28.8549 6.99263L28.8842 6.56286L28.8915 6.07479L29.0303 5.10596L29.0668 4.8073L29.0814 4.5815V4.43583L29.1253 4.36302L29.1618 4.33387L29.2568 4.31931L29.3225 4.29016L29.3371 4.21007L29.3736 3.824L29.4321 3.47436L29.549 3.16843L29.644 2.92803L29.7608 2.68767L29.812 2.54928L29.8558 2.44727L29.885 2.38902L29.9654 2.34531L30.1261 2.35263L30.2503 2.43272L30.3599 2.58571L30.4475 2.81883L30.484 3.05195L30.4986 3.21949V3.40163L30.5132 3.46721L30.5498 3.48908L30.6813 3.47453L30.7981 3.46725L30.842 3.47453L30.9004 3.4818L30.915 3.54738L30.8785 3.64207L30.8492 3.72948V3.94073L30.8638 4.09371L30.9442 4.31224L31.0538 4.57451L31.1853 4.88044L31.2656 5.12084L31.3168 5.37579L31.3313 5.6599V5.90025L31.3386 6.02409L31.3606 6.10422L31.4409 6.1261H31.6163L31.7623 6.08967C31.7623 6.08967 31.8646 6.07511 31.8938 6.07511C31.923 6.07511 32.0691 6.06784 32.0691 6.06784L32.2079 6.10426L32.3175 6.19167L32.4344 6.35194L32.5659 6.58506L32.7047 6.81086L32.7632 6.94198L32.7997 7.14595L32.807 7.4446L32.8436 7.83795L32.8728 8.0492L32.8947 8.20218L32.9824 8.40615L33.0773 8.50084L33.1577 8.59553L33.3111 8.64651L33.3695 8.71937L33.4207 8.96704L33.4499 9.28025L33.4572 9.87029L33.4791 10.2199L33.5522 10.555L33.7055 10.81L33.9028 11.0649L34.1512 11.2835L34.3192 11.3855L34.458 11.4292H34.5676L34.6114 11.4364L34.648 11.502L34.6845 11.706L34.7503 11.7861L34.8963 11.8735L35.1374 12.0119L35.32 12.1284L35.4808 12.3033L35.6342 12.5218L35.7583 12.8423L35.9556 13.2648L36.1529 13.6363L36.2917 13.9568L36.4377 14.321L36.5181 14.6707L36.5035 14.78L36.5254 14.8382L36.5692 14.8164L36.5838 14.6925L36.6131 14.5905L36.6715 14.5687L36.7738 14.5978L36.8249 14.6561L36.8907 14.8382L36.9564 15.0057L37.0076 15.1368L37.0368 15.2097L37.1098 15.2243L37.1536 15.0931L37.1317 14.86L37.1463 14.6852L37.1682 14.6196L37.2632 14.5977H37.3435L37.3874 14.6415L37.4093 14.7944L37.4166 15.2898L37.4458 15.5957L37.4969 15.9089L37.5846 16.1858L37.6942 16.3606L37.8549 16.5354L37.9864 16.7029L38.169 16.9433L38.4247 17.3586L38.6439 17.6936L38.8119 17.8976L38.9872 18.0578L39.0749 18.1015L39.1698 18.1088C39.1698 18.1088 39.2356 18.1015 39.2356 18.0651C39.2356 18.0287 39.2429 17.9558 39.2429 17.9558C39.2429 17.9558 39.2502 17.8393 39.2794 17.8247C39.3087 17.8102 39.3525 17.7519 39.3525 17.7519L39.4767 17.7082H39.6155L39.6885 17.7519L39.7104 17.8029L39.6666 17.9194L39.6155 18.0651L39.5935 18.2108L39.5205 18.4075L39.3817 18.5022L39.2868 18.5095L39.221 18.5168C39.221 18.5168 39.1699 18.5095 39.1626 18.5459C39.1553 18.5823 39.1115 18.7207 39.1115 18.7207L39.1407 19.0048L39.1699 19.624L39.1553 20.2286L39.1919 20.7094L39.2211 20.9498L39.1919 21.3796L39.1407 21.7729L39.0166 22.1663L38.8632 22.6252L38.7025 22.9603L38.5929 23.2007L38.5271 23.4556L38.4613 23.9509L38.4175 24.3443L38.3591 24.6357L38.2276 24.9198L37.928 25.1747L37.5993 25.4005L37.3801 25.5608L37.1683 25.7575L37.0441 25.925L36.9418 26.1144L36.8396 26.3693L36.7446 26.6607L36.5839 26.9886L36.3282 27.3309L36.1894 27.5203L36.0434 27.7243L35.9265 28.0084L35.7 28.2924L35.4516 28.511L35.2763 28.7004L35.1886 28.8461L35.1813 29.101L35.1886 29.3706L35.1302 29.7056L35.0498 29.9824L34.9621 30.1572L34.7795 30.3539L34.4873 30.4486L34.0636 30.4559L33.5085 30.4778L33.1213 30.5434L32.8218 30.6308L32.5003 30.8129L32.3396 30.9075L32.2227 30.9221L32.1205 30.9513L32.0693 31.0387L32.0474 31.2426L32.0401 31.3155L31.9817 31.3519H31.8428L31.5944 31.2645L31.368 31.2208C31.368 31.2208 31.3022 31.1917 31.3022 31.1625C31.3022 31.1334 31.3022 31.0022 31.3022 31.0022L31.2365 30.8201L31.1415 30.7255L31.0685 30.689L31.0247 30.7546L31.032 30.944L31.0393 31.1043L31.0101 31.1479L30.9297 31.1261L30.7982 31.0241L30.6594 30.9149L30.5717 30.8202L30.5937 30.791H30.7032L30.7398 30.7109L30.7544 30.5506L30.7106 30.4341L30.5864 30.2447L30.5425 30.2228L30.4622 30.2957L30.4549 30.5434L30.4622 30.74L30.3819 30.893L30.2358 30.995L30.1554 31.0606H29.644L29.2569 31.0387L29.1473 30.9731C29.1473 30.9731 29.0231 30.8129 28.9939 30.791C28.9647 30.7692 28.8478 30.7473 28.8186 30.7255C28.7894 30.7036 28.6798 30.7109 28.6433 30.6963C28.6067 30.6817 28.3584 30.6817 28.3584 30.6817L28.2196 30.6745L27.9347 30.5579L27.7083 30.4268L27.4891 30.3393L27.2627 30.3175C27.2627 30.3175 27.0581 30.3321 27.0216 30.3102C26.9851 30.2884 26.8024 30.2155 26.8024 30.2155L26.5687 29.946L26.5029 29.7421L26.5175 29.4288L26.5248 29.0355L26.5394 28.6494L26.4517 28.3799C26.4517 28.3799 26.3348 28.2561 26.3057 28.2342C26.2764 28.2124 26.1376 28.1468 26.1376 28.1468L25.9477 28.0958L25.8381 28.0084L25.8308 27.9428V27.8335L25.8453 27.7461L25.8162 27.717L25.7504 27.7461L25.5239 27.8845L25.3998 27.9574C25.3998 27.9574 25.3121 28.001 25.2683 28.001C25.2244 28.001 25.1075 28.0083 25.0783 28.0083C25.0491 28.0083 24.9322 27.9938 24.9322 27.9938L24.903 27.9428L24.8957 27.7971L24.903 27.6296L24.9176 27.5494L25.0272 27.4766L25.1221 27.3673L25.166 27.2144L25.1514 26.9813L25.1294 26.7627L25.1221 26.5588L25.1003 26.435L25.0491 26.3767L24.9468 26.3475L24.8519 26.3839L24.8007 26.4058L24.7642 26.4932L24.7788 26.7045L24.7496 26.8866L24.7203 27.0468L24.6546 27.1561L24.5742 27.2581L24.4354 27.3309L24.3039 27.3528L24.0336 27.3673L23.8948 27.36L23.8583 27.3017L23.8802 27.1998L24.0044 27.0832L24.1651 26.923L24.3477 26.7773L24.5449 26.566L24.6618 26.4058L24.7714 26.1727L24.8518 25.8668L24.8737 25.6045L24.8591 25.3204L24.881 25.08L24.8664 24.9052L24.8518 24.7814L24.7934 24.7595L24.7423 24.8542L24.6108 25.1019L24.4208 25.3642L24.0556 25.8012L23.9022 25.9906L23.6392 26.231L23.4639 26.3694L23.3616 26.4422L23.2886 26.5369L23.2156 26.6389L23.1936 26.7627L23.2082 26.9303V27.0614L23.1498 27.1124L22.9891 27.1197L22.8138 26.9959L22.6311 26.7919L22.4851 26.4641L22.3901 26.0853L22.3097 25.7648L22.1929 25.5317L21.9664 25.2986L21.7984 25.233L21.6231 25.2257L21.55 25.182L21.5062 25.0801L21.5574 24.9635C21.5574 24.9635 21.6011 24.9344 21.645 24.8979C21.6888 24.8615 21.7546 24.8469 21.7546 24.8469L21.813 24.8178L21.8423 24.7449L21.8496 24.6357L21.7984 24.592L21.6597 24.5628L21.5574 24.5701L21.4624 24.5483C21.4624 24.5483 21.4186 24.4973 21.4113 24.4682C21.404 24.439 21.4113 24.3006 21.4113 24.3006L21.3967 24.2205L21.2506 24.1913L20.995 24.1841L20.7466 24.0966L20.469 24.0602L20.0745 24.0747H19.8334L19.6946 24.031L19.6069 23.9509L19.5777 23.8562L19.585 23.7178C19.585 23.7178 19.6142 23.6595 19.585 23.6304C19.5558 23.6013 19.5047 23.543 19.5047 23.543L19.2928 23.4483L19.0444 23.39L18.8252 23.3973L18.555 23.4118L18.3797 23.4555L17.9998 23.5575L17.3934 23.7979L17.0501 23.9655L16.6995 24.1257L16.3415 24.235L16.0639 24.2787H15.6768L15.4722 24.2932L15.348 24.3588L15.2239 24.4972C15.2239 24.4972 15.1728 24.5919 15.1362 24.5919C15.0997 24.5919 14.7783 24.672 14.7783 24.672L14.2815 24.7522L13.8797 24.8979L13.4414 25.0727L13.0762 25.2839L12.8205 25.4369L12.6817 25.6117L12.5795 25.8156L12.4772 26.005L12.426 26.1143L12.3822 26.1799L12.1923 26.2455L11.827 26.3402C11.827 26.3402 11.4325 26.3693 11.3668 26.3766C11.3011 26.3839 10.8628 26.3839 10.8628 26.3839L10.5413 26.3547L10.1614 26.3766L9.87654 26.413L9.49667 26.5587L8.97802 26.7918L8.70041 27.0249L8.51046 27.1633L8.39357 27.2799L8.26208 27.4766L8.10136 27.6878L7.94794 27.7971L7.80915 27.8554L7.53154 27.8627L6.77911 27.87L6.52343 27.8627L6.1947 27.7898L5.96825 27.6296L5.71987 27.4402L5.59569 27.36L5.31078 27.3382L5.0697 27.2144L4.96015 27.0978L4.93091 27.0104L4.93821 26.7627L4.94551 26.6389C4.94551 26.6389 4.92357 26.5806 4.95281 26.5514C4.982 26.5223 5.12082 26.4494 5.12082 26.4494C5.12082 26.4494 5.20118 26.4349 5.23042 26.413C5.25965 26.3912 5.3619 26.3329 5.3619 26.3329L5.44226 26.2309V25.9469L5.43497 25.7574L5.38384 25.6482L5.33267 25.5243L5.33997 25.3058L5.34727 24.927L5.33267 24.6065V24.5409L5.28154 24.4316L5.0624 24.1839L4.86515 23.9945L4.70443 23.8489L4.58024 23.7177L4.53641 23.6158L4.48528 23.4628C4.48528 23.4628 4.47069 23.288 4.44875 23.2515C4.42682 23.2151 4.36109 23.0403 4.36109 23.0403C4.36109 23.0403 4.27344 22.9165 4.2442 22.8873C4.21497 22.8582 4.05425 22.6761 4.05425 22.6761L3.93006 22.545L3.87893 22.4648C3.87893 22.4648 3.8351 22.3702 3.8424 22.341C3.8497 22.3119 3.86434 22.1371 3.86434 22.1371L3.8424 21.9841L3.77664 21.9185L3.61592 21.8457L3.4406 21.7291L3.33101 21.6345L3.22876 21.5179L3.16299 21.3722L3.1411 21.1755L3.1338 21.0079L3.16299 20.8987L3.1411 20.8477L3.00961 20.8404C3.00961 20.8404 2.92195 20.8185 2.88542 20.8039C2.84889 20.7894 2.79047 20.753 2.79047 20.753L2.71011 20.6292V20.4689V20.3523L2.67357 20.2576L2.60051 20.1702L2.36673 20.0026L2.09646 19.7185L1.94304 19.5364L1.85538 19.4418L1.82615 19.3616L1.81885 19.2742L1.88461 19.2086L2.0088 19.2013L2.14759 19.2596L2.27911 19.4344L2.47636 19.6165L2.64438 19.7404L2.76857 19.7768L2.87087 19.7623L2.9074 19.6967L2.9147 19.5364L2.9074 19.3033C2.9074 19.3033 2.9001 19.2014 2.88546 19.1722C2.87087 19.1431 2.88546 19.1431 2.8124 19.0994C2.73934 19.0557 2.66632 19.0411 2.66632 19.0411L2.55677 19.0484L2.491 18.9974L2.5056 18.4948L2.4983 18.4511L2.41794 18.3928L2.31564 18.3782L2.14033 18.2617L1.99425 18.0359L1.89195 17.7955L1.85542 17.6644L1.91384 17.5259L2.0088 17.3365L2.03069 17.1471L2.05263 16.7683L2.04533 16.018V15.6829L2.06727 15.4425L2.08186 15.3333L2.10376 15.2604L2.14029 15.2532L2.20605 15.2823L2.26448 15.4353L2.3156 15.6247L2.38137 15.7266L2.43254 15.7339L2.4983 15.6392L2.53483 15.4644L2.62979 15.2095L2.78321 14.9035L3.17767 14.532L3.48447 14.1678L3.67443 13.9857L3.9301 13.789L4.22961 13.6287L4.51452 13.5559H4.85055L5.10623 13.4976C5.10623 13.4976 5.29614 13.3956 5.32537 13.381C5.35457 13.3665 5.49339 13.2281 5.49339 13.2281L5.69064 13.0969L5.91709 13.0314L6.12163 12.9148L6.30425 12.74L6.39191 12.6088L6.55263 12.4413L6.76447 12.3247L6.93979 12.281L7.17357 12.2737L7.47308 12.2519L7.84564 12.1718L8.14515 12.0916L8.43731 11.9168L8.75146 11.6764L9.08019 11.2831L9.26281 11.05L9.40889 10.7295L9.48195 10.4454L9.50389 10.0812L9.51119 9.68779L9.54772 9.38913L9.67191 9.09047L9.81799 8.8865L9.94218 8.74811L10.0298 8.6607L10.1029 8.65342L10.176 8.719L10.344 8.9448L10.4609 9.05408L10.5851 9.16333L10.6654 9.22163C10.6654 9.22163 10.6946 9.25805 10.7165 9.22163C10.7385 9.1852 10.7604 9.14877 10.7604 9.14877L10.775 8.87195L10.7384 8.41302L10.7457 8.26004L10.8115 8.18718L11.0014 8.17263L11.2863 8.18718H11.447L11.5128 8.15075L11.542 7.98321L11.5493 7.74281L11.5347 7.63357L11.4544 7.60442H11.3667L11.2937 7.57527C11.2937 7.57527 11.2791 7.51701 11.301 7.48058C11.3229 7.44415 11.4397 7.33491 11.4397 7.33491L11.5639 7.19652L11.6443 7.05085L11.6808 6.96344C11.6808 6.96344 11.6954 6.93429 11.7247 6.90518C11.7539 6.87603 11.8488 6.86875 11.8488 6.86875L12.1338 6.89063H12.2653L12.3383 6.84692L12.3456 6.62112L12.3383 6.47545C12.3383 6.47545 12.331 6.40987 12.3602 6.38804C12.3895 6.36617 12.4333 6.32246 12.4625 6.32246C12.4917 6.32246 12.6086 6.33702 12.6086 6.33702L12.7693 6.35885L12.8278 6.31514V6.19131L12.8351 6.03832L12.9666 5.92176L13.1711 5.78337L13.5802 5.56476Z" fill="#fff"/>
<path d="M17.2839 2.59732L17.3768 2.50975L17.475 2.47369H17.5989L17.7074 2.50975L17.883 2.5458L18.1 2.55096L18.2653 2.54065L18.3892 2.48399C18.3892 2.48399 18.4357 2.43763 18.4564 2.43247C18.477 2.42732 18.5235 2.42217 18.5235 2.42217L18.6011 2.44278L18.6476 2.50459L18.6527 2.64883L18.6579 2.75186L18.6217 2.82398L18.539 2.91155L18.4615 2.94246C18.4615 2.94246 18.4099 2.95791 18.3841 2.95791C18.3582 2.95791 18.3014 2.97337 18.3014 2.97337L18.2342 3.03003L18.0948 3.1073L18.0018 3.13821L17.9088 3.14336L17.8313 3.13821C17.8313 3.13821 17.7538 3.1073 17.7331 3.08155C17.7125 3.05579 17.6349 2.95276 17.6349 2.95276L17.5471 2.8858L17.4232 2.82398L17.325 2.74156L17.2837 2.64368V2.59732H17.2839Z" fill="#fff"/>
<path d="M23.6218 5.04398H23.5391L23.4978 5.01307V4.94095L23.5185 4.88944L23.5495 4.86368L23.6063 4.87398L23.6373 4.93065L23.6476 5.00277L23.6218 5.04398Z" fill="#fff"/>
<path d="M23.7973 5.26549V5.1367L23.8335 5.05428L23.8903 4.97701L23.9471 4.94095L24.035 4.9358L24.0969 4.9461L24.1796 4.97186L24.2313 5.00277L24.2571 5.04913L24.2416 5.09034L24.1951 5.1367L24.1641 5.19337L24.1538 5.26549L24.1848 5.32215L24.2313 5.37367L24.2778 5.40973L24.3036 5.45609L24.2985 5.53851C24.2985 5.53851 24.2933 5.59518 24.2726 5.60033C24.252 5.60548 24.2313 5.62609 24.2106 5.62609C24.19 5.62609 24.0867 5.62093 24.0867 5.62093L23.9679 5.56427L23.8697 5.49215L23.8026 5.39942L23.7922 5.3067L23.7973 5.26549Z" fill="#fff"/>
<path d="M26.5248 7.97883L26.5833 7.89142L26.6965 7.84044L26.7695 7.79674L26.8535 7.76395L26.9156 7.74212L26.9814 7.73116L27.0325 7.74212L27.0691 7.77123L27.0472 7.82585L26.9961 7.855L26.9084 7.90598L26.828 7.93149L26.7659 7.97156L26.6856 8.0189L26.6381 8.04073L26.5796 8.04801L26.5285 8.03709L26.5066 8.00794L26.5248 7.97883Z" fill="#fff"/>
<path d="M32.9424 32.3015L32.9351 32.2324L32.9387 32.1704L32.9716 32.1304H33.0118L33.0739 32.1449L33.1542 32.2542L33.2164 32.3525L33.2602 32.4363L33.3003 32.4946L33.3442 32.5164L33.3587 32.5601L33.3186 32.6002L33.2638 32.6402L33.2382 32.6694L33.1944 32.6876C33.1944 32.6876 33.1469 32.6912 33.1323 32.6839C33.1177 32.6766 33.0921 32.662 33.0921 32.6439C33.0921 32.6257 33.1031 32.5637 33.1031 32.5637C33.1031 32.5637 33.0994 32.5346 33.0921 32.5201C33.0848 32.5055 33.0592 32.4508 33.0592 32.4508L33.0191 32.3926L32.9789 32.3489L32.957 32.3307L32.9424 32.3015Z" fill="#fff"/>
<path d="M33.114 32.8515L33.1432 32.7896L33.1652 32.7495L33.2053 32.724H33.2857L33.3478 32.7204L33.3953 32.724L33.4208 32.7277L33.4464 32.786L33.4318 32.8297L33.3733 32.8551L33.3368 32.8733L33.282 32.8879H33.198L33.1177 32.8806L33.114 32.8515Z" fill="#fff"/>
<path d="M29.6807 32.1814L29.6697 32.1085L29.6843 32.0175L29.6916 31.9082C29.6916 31.9082 29.7172 31.879 29.7208 31.8608C29.7245 31.8427 29.7172 31.8244 29.7281 31.8062C29.7391 31.788 29.7866 31.7589 29.7866 31.7589C29.7866 31.7589 29.8158 31.7625 29.8304 31.7625C29.845 31.7625 29.8889 31.7989 29.8889 31.7989L29.9035 31.8827C29.9035 31.8827 29.9108 31.9119 29.9108 31.941C29.9108 31.9702 29.9144 32.0393 29.9108 32.0576C29.9071 32.0758 29.8742 32.1304 29.8742 32.1304L29.8267 32.1814C29.8267 32.1814 29.8048 32.1996 29.7829 32.2032C29.761 32.2069 29.7172 32.2032 29.7172 32.2032L29.6807 32.1814Z" fill="#fff"/>
<path d="M30.2749 33.0493L30.3369 32.9411C30.3369 32.9411 30.3834 32.8896 30.4041 32.8896C30.4247 32.8896 30.4764 32.8896 30.4764 32.8896L30.559 32.9565L30.5797 33.008L30.6727 33.039L30.8225 33.0544L30.9258 33.0956L31.055 33.2038L31.1996 33.312L31.3287 33.4202L31.4578 33.4923L31.6076 33.5077C31.6076 33.5077 31.7315 33.5129 31.7522 33.4974C31.7729 33.482 31.809 33.4511 31.8349 33.4408C31.8607 33.4305 31.964 33.3996 31.964 33.3996L32.0983 33.3841L32.2222 33.3583L32.4185 33.3429L32.5941 33.3171L32.7078 33.2914L32.8007 33.2347L32.8938 33.1832H32.9919L33.1004 33.2244L33.1676 33.2656L33.2192 33.3635L33.2296 33.4974L33.2244 33.6365L33.1986 33.7755L33.1469 33.9403L33.1056 34.0485L33.0952 34.1979L33.1004 34.3678L33.1107 34.4709L33.0849 34.5172L32.9868 34.543L32.9248 34.5481L32.8421 34.6151L32.7852 34.6924L32.7336 34.7697L32.7181 34.8727L32.7439 34.95L32.8162 34.9809L32.8524 35.0221V35.0633L32.8472 35.1251L32.7801 35.1612L32.7594 35.2282V35.3157C32.7594 35.3157 32.7594 35.3673 32.7594 35.3982C32.7594 35.4291 32.7388 35.4652 32.7388 35.4652L32.7284 35.4909L32.6613 35.4961L32.5889 35.4909C32.5889 35.4909 32.5631 35.4188 32.5683 35.3982C32.5734 35.3776 32.5579 35.3209 32.5476 35.3003C32.5373 35.2797 32.5218 35.2591 32.496 35.2591C32.4701 35.2591 32.4184 35.2591 32.4184 35.2591L32.3616 35.2745L32.2686 35.3415L32.2066 35.3879L32.1136 35.5063L32.031 35.5785L31.9638 35.7381L31.9224 35.8206L31.8398 35.8618L31.7416 35.8566L31.628 35.8102L31.5454 35.7433L31.4988 35.7072H31.4575C31.4575 35.7072 31.4213 35.7072 31.4007 35.7072C31.38 35.7072 31.3439 35.7124 31.3439 35.7124L31.3077 35.7021C31.3077 35.7021 31.2664 35.7021 31.2509 35.6763C31.2354 35.6505 31.2199 35.6351 31.2199 35.6351L31.1579 35.599C31.1579 35.599 31.163 35.6042 31.1114 35.5681C31.0597 35.5321 30.9977 35.496 30.9977 35.496C30.9977 35.496 30.9512 35.4651 30.9461 35.4445C30.9409 35.4239 30.8583 35.3157 30.8583 35.3157L30.7756 35.156L30.7343 35.0273L30.7239 34.8986L30.7291 34.7801L30.6981 34.6925L30.6361 34.6307C30.6361 34.6307 30.569 34.6049 30.5586 34.5792C30.5482 34.5534 30.5379 34.5019 30.5379 34.5019L30.5741 34.4504C30.5741 34.4504 30.6051 34.4246 30.6361 34.4143C30.6671 34.404 30.6774 34.3937 30.6774 34.3937C30.6774 34.3937 30.6878 34.3782 30.6878 34.3473C30.6878 34.3164 30.6878 34.2752 30.6878 34.2752L30.6464 34.1825C30.6464 34.1825 30.6361 34.131 30.6309 34.1104C30.6258 34.0898 30.5328 33.9198 30.5328 33.9198L30.4243 33.8373L30.3416 33.7446L30.2951 33.6879L30.2693 33.5386L30.2745 33.3583L30.2796 33.1523L30.2749 33.0493Z" fill="#fff"/>
<path d="M32.2121 35.7896L32.1605 35.7432L32.1501 35.6711L32.1656 35.5938L32.1863 35.5629L32.2483 35.5783L32.2793 35.635V35.702L32.269 35.7535L32.2431 35.7947L32.2121 35.7896Z" fill="#fff"/>
<path d="M23.7094 27.7748L23.8024 27.6717L23.8696 27.5944L23.9626 27.5378L24.0555 27.5275L24.1124 27.5017H24.2467L24.381 27.4966L24.4688 27.5223C24.4688 27.5223 24.5308 27.5378 24.5824 27.5532C24.6341 27.5687 24.6496 27.5738 24.6703 27.5738C24.6909 27.5738 24.7322 27.5738 24.7322 27.5738L24.7891 27.5893L24.8149 27.6202L24.7994 27.6924C24.7994 27.6924 24.7736 27.7542 24.7529 27.7645C24.7323 27.7748 24.6806 27.8005 24.6806 27.8005L24.6238 27.8469C24.6238 27.8469 24.6496 27.8727 24.6083 27.883C24.5669 27.8933 24.5411 27.8984 24.5411 27.8984L24.4842 27.8675V27.8417L24.4171 27.8366H24.3551L24.3086 27.883L24.071 27.8727L23.854 27.8778L23.7662 27.8469L23.6991 27.8211L23.6887 27.8005L23.7094 27.7748Z" fill="#fff"/>
</svg>
