<svg width="30" height="35" viewBox="0 0 30 35" fill="none" xmlns="http://www.w3.org/2000/svg">
<g clip-path="url(#clip0)">
<path d="M7.41186 2.35032L7.26804 2.60769L7.05677 2.68734L7.28873 3.05556L7.14789 4.23611L7.39437 4.34028L7.32394 4.47917L7.00704 5L6.58451 5.17361V5.52084L6.30282 5.59028L6.37324 5.86806L5.80986 6.07639L5.77465 6.11111L5.80986 6.28473L5.84507 6.38889L5.80986 6.42361L5.56338 6.73611L5.66902 6.84028L5.35211 7.08334V7.74306L5.70423 7.91667L5.80986 7.70834L5.88028 7.63889L5.98592 7.8125L5.80986 8.22917L5.17606 8.78473L5.42254 9.47917L5.28169 9.68751L5.88028 10L6.44366 10.7292L6.90141 11.6319L7.21831 12.2917L8.02817 13.3681L7.95775 13.6458L8.23944 14.0278L8.66197 14.4097L10.6338 15.2778L11.2676 15.8681L11.4085 16.7361L11.4789 17.5L11.2676 18.6458L11.4085 19.6528L11.0563 21.5972L11.2324 22.1181L11.1972 22.1875L11.0563 22.5L11.2676 24.0972L10.8099 25.9722L10.5986 26.1111L10.9507 27.1875L10.7746 28.0208L10.9859 28.2639L10.9155 28.3681L11.1972 28.1944L11.3732 28.2639L11.4789 28.1597L11.2676 28.4375L11.5141 28.5417L11.4789 28.7153L11.3028 28.6111L11.4789 28.7847L11.338 28.7153L11.3028 29.2014L11.4789 29.375L11.3028 29.5486L11.6197 29.7222L11.3028 30.0694L11.5845 30.1736L11.3028 30.2083V30.3819L11.4789 30.2778L11.3732 30.7292L11.2324 30.5556L11.0211 30.5903L11.1972 30.5556H11.0563L11.1268 30.3819L11.0211 30.5208L10.8803 30.4167L10.7394 30.4514L10.9859 30.5208L10.8803 30.6944L10.6954 30.8507L10.8803 30.7292L10.9507 30.9028L11.162 30.8681L11.3028 31.0764L11.1268 31.2153H11.338L11.0563 31.3194L11.4085 31.25L11.6549 31.4236L11.4789 31.3889L11.6197 31.5625L11.1268 31.4583L11.4437 31.6319L11.2676 31.7361L11.4085 31.8056L11.338 32.1181L11.4437 32.0139L11.6549 32.2569L11.4085 32.2222L11.5141 32.3958L11.6197 32.5347L11.338 32.5L11.5845 32.5694L11.6197 32.8125L11.7254 32.5694L11.831 32.7083L11.6197 32.8125L11.5493 32.8472L11.7606 32.9167L11.7254 33.1597L11.9366 33.3333L11.9014 33.1597L12.007 33.3333L11.9014 33.0903L12.1831 33.1944L11.8662 33.0556L12.007 32.9167L11.9718 33.0903L12.2183 33.1944L12.1479 33.5069V33.2986L12.1127 33.4722L12.0775 33.3333H12.007H11.9366H11.831L11.9014 33.6806L12.1479 33.5417H12.6056L12.7113 33.7847L12.5352 33.9931L12.5704 33.8542L12.3592 33.9236L12.7817 34.1319L12.8169 33.5764L13.3451 33.3333L13.662 33.3681L13.4155 33.0556H13.2042L13.4155 33.0208L13.2042 32.8125L13.5211 32.3611L13.4507 32.2917L13.3803 32.1528L13.4859 32.2917L13.5211 32.3264L13.662 32.2917V32.2569L13.7324 31.8056L14.3662 31.25L14.331 30.9028L13.9437 30.8333L13.5916 30.3819L13.8028 29.9653L14.3662 29.7917L14.4014 29.1667L14.7887 28.8194L14.507 28.6458L14.7535 28.5764L14.8592 28.75L15.0704 28.6111L15 28.3681L14.7183 28.5417L14.4718 28.3681L14.4366 27.6736L14.9648 27.8819L15.5634 27.7431V26.9097L15.7042 26.9792L15.5634 26.6667L16.0916 26.7708L16.5493 26.6667L17.2183 26.5278L17.6408 26.3194L18.0282 25.6944V25.4167L17.7465 25.2083L17.8521 24.8611L17.2183 24.375L17.3239 23.6806L17.2887 24.1319L17.5704 24.4097L18.3099 24.6875L19.2254 24.5833L20 23.75L20.2113 23.0903L20.8451 22.3611L20.7394 22.1528L21.0563 22.4306L20.2817 23.2986L20.9155 22.7778L21.3028 22.1875L21.5493 21.8403L22.0423 21.4583L22.2535 20.6944L22.1127 20.2431L22.3944 19.8611L22.2183 19.7569L22.4648 19.8264L22.8169 19.4097L23.4507 19.0278H23.9085L24.4718 18.6111L24.8592 18.7153L25.1056 18.5417V18.7153L25.6338 18.75L25.669 18.5069L26.1972 18.2986L26.162 18.0208L26.7958 17.2222L26.9014 17.0486L27.0423 16.3889L27.3592 16.0764L27.7817 13.4722L27.8521 13.3333L27.9577 13.5764L28.169 13.4375L29.2606 12.1528L29.8944 11.3542L30 10.7292L29.8239 9.82639L29.6479 9.58334L28.9084 9.40972L28.2394 8.64584L27.4648 8.09028L26.3028 7.95139L25.7042 7.60417L24.9296 8.05556L25 7.70834L25.2113 7.56944L24.8592 7.60417L25.1408 7.39583L24.9648 7.04861L24.7183 7.25695L24.6831 6.97917L24.5775 7.08334L24.6479 6.97917L24.4718 7.01389L24.331 6.80556L24.2606 6.94445L24.2254 6.73611L24.1549 6.84028L23.6268 6.52778L23.5915 6.63195L23.2394 6.52778L22.993 6.90973L23.2042 6.97917L23.0282 7.04861L22.8873 6.875L22.4296 7.36111L22.5704 7.01389L21.9366 7.08334L22.7817 6.90973L23.0634 6.31945L21.9718 6.14584L21.7254 6.59723V6.35417L21.4789 6.5625V6.31945L21.2324 6.5625L21.4437 6.11111L22.2183 5.48611H22.1127L22.2183 5.24306L21.7606 5L21.4437 3.92361L21.3028 3.81945L21.2676 3.99306L20.9155 3.54167L19.8592 3.02083L18.2394 2.98611L17.5704 2.46528L17.3944 2.70834L17.5 2.25695L17.1831 1.94445L16.6901 1.66667L16.5493 1.63195H16.1972V1.25L15.7746 1.00695L15.3873 1.07639L15.3169 0.972225L15.1056 0.798615L14.9107 0.683071L14.6831 0.763893L13.9085 0.972225L13.2746 0.694447L12.2535 0.83334L12.1127 0.486111L11.4789 0.416672L11.2676 0.0694504L11.162 0.347225L11.3732 0.3125V0.416672L11.1972 0.381947L10.4225 0.763893L10.5986 1.14584L10.7042 1.25L10.669 1.45834L10.3169 1.59723L10.1056 1.25L10.1761 1.18056L10.4225 0.83334L10.2113 0.416672L10.7042 0.173615L10.3873 3.8147e-06L9.50704 0.590282L9.0493 0.625004L8.97887 0.798615L8.69718 0.763893L8.45071 0.902782L8.20423 1.25V1.31945L8.23944 1.5625L7.53521 2.04861L7.60564 2.36111L7.41186 2.35032ZM12.1479 33.5417L12.0423 33.75L12.1831 33.7847L12.1479 33.5417ZM10.6954 30.8507L10.669 30.8681L10.6719 30.8709L10.6954 30.8507ZM10.6719 30.8709L10.6338 30.9028L10.7746 30.9722L10.6719 30.8709ZM5.70423 7.91667L5.77465 8.05556L5.80986 7.95139L5.88028 7.88195L5.80986 7.91667H5.70423ZM15.3873 1.11111L15.5282 1.59723L15.7746 1.63195L14.4542 1.97338L15.4225 1.63195L15.4577 1.49306L15.3873 1.11111ZM13.6268 1.97917L14.0317 2.11227L14.4366 1.97917L14.0493 2.11806L14.0317 2.11227L14.0141 2.11806L13.6268 2.01389L13.2042 2.15278L12.5704 2.88195L12.7817 2.39584L13.2042 2.11806L13.6268 1.97917ZM15.1761 2.04861L15.1056 2.5L15 2.11806L15.1761 2.04861ZM19.4366 3.47223L19.507 3.68056H19.2254L19.4366 3.47223ZM22.3592 5.9375L21.9718 5.97222L22.1831 6.14584L22.3592 5.9375ZM13.4507 6.07639H14.6479L15.8099 6.63195L16.6901 7.53473L17.5352 7.56944L18.0282 7.15278L18.5211 7.25695L18.8732 6.94445L19.507 6.97917L19.6831 7.08334V7.22222H19.8592L20.7042 6.84028L19.9296 7.22222L19.4366 7.25695L19.2254 7.84723L19.331 7.1875L19.5775 7.22222L19.0845 7.11806H19.4014L19.0845 6.97917L18.5211 7.29167L18.0282 7.1875L17.4296 7.67362L16.831 7.56944L16.6901 7.60417L15.669 7.98611L15.3521 7.8125L14.7183 8.22917L14.6831 8.05556L14.8592 7.98611L14.0845 7.67362L14.0493 7.77778L13.7676 7.36111L13.3803 7.22222L12.6056 7.29167L12.1831 7.8125H11.5845L11.4085 8.05556L11.5141 8.125L11.2676 8.29861L11.2559 8.28415L11.2324 8.29861L11.0211 8.05556L10.3873 8.02084H11.0211L11.2559 8.28415L11.5141 8.125L11.3732 8.09028L11.5845 7.77778L12.2183 7.74306L12.6056 7.29167L13.6972 7.1875L14.2958 7.74306L15 8.02084L15.3521 7.8125L15.6338 7.95139L16.162 7.77778L16.2324 7.53473L16.6901 7.56944L16.3732 7.46528L15.7746 6.66667L14.6831 6.14584H13.169L13.4507 6.07639ZM18.4859 6.59723L18.9085 6.70139L18.9437 6.875L18.4859 6.59723ZM21.3028 6.97917L21.7958 7.01389L21.6227 7.21644L21.7254 7.36111L21.6197 7.22222L21.6227 7.21644L21.4789 7.01389L21.4085 7.25695L21.3028 6.97917ZM0.105635 7.29167L0 7.39583L0.246479 7.67362L0.0352117 7.84723H0.246479L0.387326 7.70834L0.105635 7.29167ZM10.1761 7.74306L9.54225 7.95139L9.71831 7.84723L9.61268 7.77778L9.85915 7.8125L10.1761 7.74306ZM11.4085 14.1667L11.5845 14.2014L12.1127 14.6528L11.9718 14.8264L11.8662 14.5833L11.7606 14.6875L11.338 14.4444L11.4085 14.1667ZM12.9225 15.5903L13.0282 16.1806L12.8521 15.9028L12.9225 15.5903ZM24.2606 16.0069L24.4718 16.3542L24.331 16.4583L24.1549 16.4236L24.2958 16.1806L24.1197 16.2153L24.2606 16.0069ZM24.0493 17.2569L24.0141 17.3611L24.1901 17.6042L23.8732 17.3264L23.6972 17.3958L23.9789 17.8125L23.8028 17.6389L23.662 17.7083L23.8028 17.5694L23.6268 17.2917L24.0493 17.2569ZM22.0423 18.5764H22.3592L22.3239 18.75L22.0423 18.5764ZM17.4296 20.5556L18.6972 20.6944L17.1831 20.6597L16.831 21.7361V22.0139L16.7958 22.3611L16.7606 22.4074V22.4306L16.6901 22.5L16.5845 22.6389L16.2676 23.0556L16.3732 23.7153L16.2324 23.0208L16.5845 22.6042V22.4306L16.6197 22.3611V22.0139H16.7606L16.7958 21.6319L16.9014 21.4931L17.1479 20.6597L17.4296 20.5556ZM15.5282 22.3611L15.3169 22.5347L15.1761 22.3958L15.5282 22.3611ZM20 23.2986L19.9648 23.6458L19.7887 23.6111L19.5423 24.0278V23.7153L20 23.2986ZM18.6972 23.3681L18.3803 23.5417L18.4507 23.6458L18.0986 23.5764H18.0634L18.6972 23.3681ZM11.6549 27.8125L11.9014 27.9861L11.6901 28.0208L11.6549 27.8125ZM11.1972 27.9514L11.338 28.0556L11.1972 28.125V27.9514ZM10.7746 28.4028V29.1667L10.9507 29.2014L11.1268 29.0625L10.9859 28.4028H10.7746ZM11.4085 29.6528L11.2676 29.7917L11.4437 29.8958L11.4085 29.6528ZM10.9859 30.625L11.1268 30.6597L11.0563 30.7986L10.9859 30.625ZM11.6901 30.6597H12.2887L11.8662 30.6944L11.6549 30.9375L11.6901 30.6597ZM11.1268 31.5278L11.0563 31.7708H11.2676L11.1268 31.5278ZM11.7606 31.5972L11.9014 31.8056V31.6319L12.0775 31.9444L11.7606 31.875V31.5972ZM11.162 31.8056L11.1972 32.1181H10.9507L11.162 32.3958L11.2676 32.0833L11.2324 32.4306L11.4085 32.3264L11.162 31.8056ZM11.7958 32.3958L12.2535 32.4306L11.9014 32.5347L11.9366 32.6736L11.7958 32.3958ZM11.0563 32.4653L11.1268 32.6389L11.1972 32.4653H11.0563ZM16.831 32.8125V33.0556L17.2535 33.0208L17.1831 32.8819L17.0775 33.0208L16.831 32.8125ZM16.831 33.0556L16.5493 33.2292L16.6901 33.3333L16.7958 33.1944L16.9366 33.1597L16.831 33.0556ZM16.2324 32.8472L16.4789 33.0208L16.2324 32.9861L16.4085 33.0556L16.1268 33.1944L16.4789 33.1597L16.7606 32.8819H16.4789L16.2324 32.8472ZM13.5211 33.4722L12.993 33.6111L13.0282 33.8889H13.3803L13.2042 34.1667L13.5916 34.3403L13.4859 34.4444L13.4155 34.3056L13.3451 34.4097L12.9225 34.2361L13.2042 34.4097L13.0282 34.4444L12.993 34.3056L12.6408 34.4792L14.331 34.5486L14.8239 34.375L13.9085 34.0278L13.5211 33.4722ZM12.2535 33.6111L12.1831 33.8542L12.3592 33.9583L12.2887 33.8542L12.6056 33.6111H12.2535ZM11.5845 33.6806L11.831 33.8542L12.1831 33.9236L11.5845 33.6806ZM12.1831 33.9236L12.007 34.0972L12.2183 34.2361L12.3592 34.1319L12.2535 34.2361L12.5 34.0972L12.1831 33.9236ZM13.0282 33.9583L12.9225 34.1667L13.169 34.2708L13.0282 33.9583ZM12.6761 34.1667L12.7113 34.2708L12.9225 34.3056L12.6761 34.1667ZM13.7676 34.5486L13.2746 34.6528L13.5211 34.8264L13.4507 34.6875H13.662V34.7917L13.9437 34.8611L13.5916 34.6181L13.7676 34.5486ZM23.3803 34.5833L23.838 35L23.8028 34.6875L23.3803 34.5833Z" fill="#fff"/>
</g>
<defs>
<clipPath id="clip0">
<rect width="30" height="35" fill="white"/>
</clipPath>
</defs>
</svg>
